<svg width="29" height="28" viewBox="0 0 29 28" fill="none" xmlns="http://www.w3.org/2000/svg">
<path d="M13.8085 9.85099C14.0404 9.85099 14.2285 9.66295 14.2285 9.43099C14.2285 9.19903 14.0404 9.01099 13.8085 9.01099C13.5765 9.01099 13.3885 9.19903 13.3885 9.43099C13.3885 9.66295 13.5765 9.85099 13.8085 9.85099Z" fill="url(#paint0_linear_37_216)"/>
<path d="M9.21393 11.7558C9.44589 11.7558 9.63393 11.5677 9.63393 11.3358C9.63393 11.1038 9.44589 10.9158 9.21393 10.9158C8.98197 10.9158 8.79393 11.1038 8.79393 11.3358C8.79393 11.5677 8.98197 11.7558 9.21393 11.7558Z" fill="url(#paint1_linear_37_216)"/>
<path d="M7.30908 16.3504C7.54104 16.3504 7.72908 16.1623 7.72908 15.9304C7.72908 15.6984 7.54104 15.5104 7.30908 15.5104C7.07712 15.5104 6.88908 15.6984 6.88908 15.9304C6.88908 16.1623 7.07712 16.3504 7.30908 16.3504Z" fill="url(#paint2_linear_37_216)"/>
<path d="M9.21393 20.9449C9.44589 20.9449 9.63393 20.7568 9.63393 20.5249C9.63393 20.2929 9.44589 20.1049 9.21393 20.1049C8.98197 20.1049 8.79393 20.2929 8.79393 20.5249C8.79393 20.7568 8.98197 20.9449 9.21393 20.9449Z" fill="url(#paint3_linear_37_216)"/>
<path d="M13.3885 22.4255C13.3885 22.6588 13.5752 22.8455 13.8085 22.8455C14.0418 22.8455 14.2285 22.6588 14.2285 22.4255C14.2285 22.1922 14.0418 22.0055 13.8085 22.0055C13.5752 22.0055 13.3885 22.1922 13.3885 22.4255Z" fill="url(#paint4_linear_37_216)"/>
<path d="M20.3036 16.3504C20.5356 16.3504 20.7236 16.1623 20.7236 15.9304C20.7236 15.6984 20.5356 15.5104 20.3036 15.5104C20.0717 15.5104 19.8836 15.6984 19.8836 15.9304C19.8836 16.1623 20.0717 16.3504 20.3036 16.3504Z" fill="url(#paint5_linear_37_216)"/>
<path d="M18.403 11.7558C18.635 11.7558 18.823 11.5677 18.823 11.3358C18.823 11.1038 18.635 10.9158 18.403 10.9158C18.1711 10.9158 17.983 11.1038 17.983 11.3358C17.983 11.5677 18.1711 11.7558 18.403 11.7558Z" fill="url(#paint6_linear_37_216)"/>
<path d="M15.3867 16.2909H16.723C16.8187 16.2909 16.9104 16.2529 16.978 16.1853C17.0456 16.1177 17.0836 16.0259 17.0836 15.9303C17.0836 15.8347 17.0456 15.7429 16.978 15.6753C16.9104 15.6077 16.8187 15.5697 16.723 15.5697H15.3867C15.3179 15.2732 15.1673 15.0019 14.9521 14.7867C14.7369 14.5714 14.4656 14.4209 14.1691 14.3521V11.7557C14.1691 11.6601 14.1311 11.5684 14.0635 11.5008C13.9958 11.4331 13.9041 11.3951 13.8085 11.3951C13.7128 11.3951 13.6211 11.4331 13.5535 11.5008C13.4859 11.5684 13.4479 11.6601 13.4479 11.7557V14.3521C13.059 14.44 12.7163 14.6683 12.4853 14.9932C12.2543 15.3181 12.1512 15.7168 12.1959 16.113C12.2405 16.5091 12.4298 16.8749 12.7273 17.1402C13.0249 17.4055 13.4098 17.5518 13.8085 17.5509C14.5806 17.5509 15.2212 17.0079 15.3867 16.2909ZM13.8085 16.8254C13.5747 16.8183 13.353 16.7204 13.1901 16.5525C13.0273 16.3846 12.9363 16.1599 12.9363 15.9261C12.9363 15.6922 13.0273 15.4675 13.1901 15.2996C13.353 15.1317 13.5747 15.0338 13.8085 15.0267C14.0422 15.0338 14.264 15.1317 14.4268 15.2996C14.5896 15.4675 14.6807 15.6922 14.6807 15.9261C14.6807 16.1599 14.5896 16.3846 14.4268 16.5525C14.264 16.7204 14.0422 16.8183 13.8085 16.8254ZM21.5806 17.2879C18.7467 17.2879 16.443 19.5915 16.443 22.4254C16.443 22.7903 16.4812 23.1467 16.5576 23.4903C16.5788 23.5964 16.6042 23.7024 16.6339 23.8085L16.6467 23.8339C17.2618 25.9806 19.2388 27.563 21.5806 27.563C24.4145 27.563 26.7182 25.2594 26.7182 22.4254C26.7182 19.5915 24.4145 17.2879 21.5806 17.2879ZM21.5806 26.8418C19.523 26.8418 17.7964 25.4291 17.3085 23.52L17.2576 23.3164V23.3121C17.1982 23.0236 17.1685 22.7267 17.1685 22.4212C17.1685 19.9861 19.1497 18.0048 21.5848 18.0048C24.02 18.0048 25.997 19.9903 25.997 22.4254C25.997 24.8606 24.0158 26.8418 21.5806 26.8418Z" fill="url(#paint7_linear_37_216)"/>
<path d="M16.6848 26.3413C15.7473 26.6 14.7758 26.7273 13.8042 26.7273C7.84788 26.7316 3.00303 21.8825 3.00303 15.9261C3.00303 9.96974 7.84788 5.12489 13.8042 5.12489C19.7606 5.12489 24.6097 9.96974 24.6097 15.9261C24.6097 16.24 24.5927 16.571 24.5673 16.9103C24.5503 17.1097 24.6988 17.2837 24.8939 17.3006C25.0933 17.3134 25.2673 17.1691 25.2842 16.974C25.3139 16.6176 25.3309 16.2655 25.3309 15.9261C25.3309 13.3297 24.4655 10.9328 23.0103 9.00247L23.4388 8.5061C24.2151 7.61095 24.1133 6.24913 23.2182 5.47701C23.0052 5.29165 22.7575 5.15045 22.4895 5.0616C22.2215 4.97275 21.9385 4.93802 21.657 4.95944C21.0842 5.00186 20.5624 5.26489 20.1891 5.69762L19.8327 6.10913C18.4539 5.26065 16.8842 4.69641 15.2042 4.49277V3.13944H15.8236C16.5576 3.13944 17.1558 2.54125 17.1558 1.76913C17.1558 1.03519 16.5576 0.437012 15.8236 0.437012H11.7891C11.0551 0.437012 10.457 1.03519 10.457 1.76913V1.80307C10.457 2.53701 11.0551 3.13519 11.7891 3.13519H12.4085V4.48853C10.767 4.6867 9.18797 5.23813 7.78 6.10489L7.42363 5.69338C7.0503 5.26065 6.52848 4.99762 5.95575 4.95519C5.38303 4.91277 4.82727 5.09519 4.39454 5.47277C3.96181 5.85035 3.69878 6.36792 3.65636 6.94065C3.61394 7.51338 3.79636 8.06913 4.17394 8.50186L4.60242 8.99822C3.14727 10.9328 2.28181 13.3297 2.28181 15.9261C2.28181 22.2813 7.45333 27.4485 13.8042 27.4485C14.8394 27.4485 15.8745 27.3085 16.8758 27.037C17.0667 26.9861 17.1812 26.7867 17.1303 26.5916C17.1027 26.5004 17.0409 26.4235 16.9579 26.3769C16.8749 26.3302 16.777 26.3175 16.6848 26.3413ZM20.7364 6.16853C20.8584 6.02641 21.0074 5.9098 21.1746 5.82538C21.3419 5.74097 21.5241 5.69041 21.711 5.67661C21.8978 5.66282 22.0855 5.68605 22.2634 5.74499C22.4412 5.80392 22.6056 5.8974 22.7473 6.02004C23.3412 6.53338 23.4091 7.43701 22.8958 8.03095L22.5521 8.42974C21.9304 7.7039 21.2207 7.05833 20.4394 6.50792L20.7364 6.16853ZM11.1782 1.80731V1.76913C11.1782 1.42974 11.4539 1.15822 11.7891 1.15822H15.8236C16.1588 1.15822 16.4345 1.43398 16.4345 1.80731C16.4345 2.14247 16.1588 2.41822 15.8236 2.41822H11.7891C11.4539 2.41822 11.1782 2.14247 11.1782 1.80731ZM13.1297 3.13944H14.483V4.42489C14.2582 4.41216 14.0333 4.40368 13.8042 4.40368C13.5794 4.40368 13.3545 4.41216 13.1297 4.42489V3.13944ZM4.72121 8.03519C4.47091 7.74671 4.34788 7.37762 4.37757 7.00004C4.40727 6.61822 4.58121 6.27459 4.86969 6.02428C5.15818 5.77398 5.52303 5.65519 5.90484 5.68065C6.28666 5.71035 6.6303 5.88428 6.8806 6.17277L7.17757 6.51641C6.39697 7.06792 5.68848 7.71277 5.06485 8.43822L4.72121 8.03519Z" fill="url(#paint8_linear_37_216)"/>
<path d="M25.263 22.0055H24.9109C24.737 20.8388 23.9224 19.8036 22.8364 19.4006C21.6315 18.917 20.1891 19.2521 19.3321 20.1727C18.4497 21.0764 18.2164 22.4976 18.7255 23.6091C19.2091 24.7333 20.397 25.4758 21.5848 25.4291C20.397 25.4121 19.2897 24.6188 18.8952 23.5412C18.4709 22.4679 18.7679 21.1867 19.5909 20.4315C20.3927 19.6509 21.6527 19.4473 22.6327 19.9012C23.4939 20.2746 24.0921 21.1103 24.2109 22.0097H23.9182C23.7655 22.0097 23.6764 22.1794 23.7612 22.3067L24.4358 23.3121C24.5121 23.4224 24.6733 23.4224 24.7497 23.3121L25.4242 22.3067C25.5048 22.1752 25.4158 22.0055 25.263 22.0055Z" fill="url(#paint9_linear_37_216)"/>
<path d="M22.183 16.3927C22.3867 16.4097 22.5606 16.2697 22.5818 16.0746C22.5861 16.0236 22.5861 15.977 22.5861 15.9303C22.5861 11.094 18.6491 7.15698 13.8042 7.15698C8.96787 7.15698 5.0309 11.094 5.0309 15.9303C5.0309 20.7667 8.96787 24.7036 13.8042 24.7036C14.36 24.7036 14.92 24.6485 15.4673 24.5424C15.6624 24.5043 15.7897 24.3176 15.7557 24.1182C15.7372 24.0239 15.6823 23.9408 15.6029 23.8868C15.5235 23.8328 15.426 23.8123 15.3315 23.8297C14.8282 23.9262 14.3168 23.9745 13.8042 23.974C9.36666 23.974 5.75211 20.3636 5.75211 15.9218C5.75211 11.48 9.36241 7.86971 13.8042 7.86971C18.2461 7.86971 21.8648 11.48 21.8648 15.9218V15.9897C21.8394 16.1933 21.9836 16.3715 22.183 16.3927Z" fill="url(#paint10_linear_37_216)"/>
<defs>
<linearGradient id="paint0_linear_37_216" x1="13.8085" y1="9.01099" x2="13.8085" y2="9.85099" gradientUnits="userSpaceOnUse">
<stop stop-color="#62CFF4"/>
<stop offset="1" stop-color="#2C67F2"/>
</linearGradient>
<linearGradient id="paint1_linear_37_216" x1="9.21393" y1="10.9158" x2="9.21393" y2="11.7558" gradientUnits="userSpaceOnUse">
<stop stop-color="#62CFF4"/>
<stop offset="1" stop-color="#2C67F2"/>
</linearGradient>
<linearGradient id="paint2_linear_37_216" x1="7.30908" y1="15.5104" x2="7.30908" y2="16.3504" gradientUnits="userSpaceOnUse">
<stop stop-color="#62CFF4"/>
<stop offset="1" stop-color="#2C67F2"/>
</linearGradient>
<linearGradient id="paint3_linear_37_216" x1="9.21393" y1="20.1049" x2="9.21393" y2="20.9449" gradientUnits="userSpaceOnUse">
<stop stop-color="#62CFF4"/>
<stop offset="1" stop-color="#2C67F2"/>
</linearGradient>
<linearGradient id="paint4_linear_37_216" x1="13.8085" y1="22.0055" x2="13.8085" y2="22.8455" gradientUnits="userSpaceOnUse">
<stop stop-color="#62CFF4"/>
<stop offset="1" stop-color="#2C67F2"/>
</linearGradient>
<linearGradient id="paint5_linear_37_216" x1="20.3036" y1="15.5104" x2="20.3036" y2="16.3504" gradientUnits="userSpaceOnUse">
<stop stop-color="#62CFF4"/>
<stop offset="1" stop-color="#2C67F2"/>
</linearGradient>
<linearGradient id="paint6_linear_37_216" x1="18.403" y1="10.9158" x2="18.403" y2="11.7558" gradientUnits="userSpaceOnUse">
<stop stop-color="#62CFF4"/>
<stop offset="1" stop-color="#2C67F2"/>
</linearGradient>
<linearGradient id="paint7_linear_37_216" x1="19.4519" y1="11.3951" x2="19.4519" y2="27.563" gradientUnits="userSpaceOnUse">
<stop stop-color="#62CFF4"/>
<stop offset="1" stop-color="#2C67F2"/>
</linearGradient>
<linearGradient id="paint8_linear_37_216" x1="13.8064" y1="0.437012" x2="13.8064" y2="27.4485" gradientUnits="userSpaceOnUse">
<stop stop-color="#62CFF4"/>
<stop offset="1" stop-color="#2C67F2"/>
</linearGradient>
<linearGradient id="paint9_linear_37_216" x1="21.9572" y1="19.1799" x2="21.9572" y2="25.4312" gradientUnits="userSpaceOnUse">
<stop stop-color="#62CFF4"/>
<stop offset="1" stop-color="#2C67F2"/>
</linearGradient>
<linearGradient id="paint10_linear_37_216" x1="13.8085" y1="7.15698" x2="13.8085" y2="24.7036" gradientUnits="userSpaceOnUse">
<stop stop-color="#62CFF4"/>
<stop offset="1" stop-color="#2C67F2"/>
</linearGradient>
</defs>
</svg>
