<svg width="16" height="16" viewBox="0 0 16 16" fill="none" xmlns="http://www.w3.org/2000/svg">
<path d="M5.07671 13.3332C4.77893 13.3332 4.52493 13.2283 4.31471 13.0185C4.10493 12.8087 4.00004 12.5547 4.00004 12.2565V3.99982H3.33337V3.33316H6.00004V2.81982H10V3.33316H12.6667V3.99982H12V12.2565C12 12.5632 11.8974 12.8192 11.692 13.0245C11.4863 13.2303 11.23 13.3332 10.9234 13.3332H5.07671ZM11.3334 3.99982H4.66671V12.2565C4.66671 12.376 4.70515 12.4743 4.78204 12.5512C4.85893 12.628 4.95715 12.6665 5.07671 12.6665H10.9234C11.0256 12.6665 11.1196 12.6238 11.2054 12.5385C11.2907 12.4527 11.3334 12.3587 11.3334 12.2565V3.99982ZM6.53871 11.3332H7.20537V5.33316H6.53871V11.3332ZM8.79471 11.3332H9.46137V5.33316H8.79471V11.3332Z" fill="#545050"/>
</svg>
