<svg width="16" height="16" viewBox="0 0 16 16" fill="none" xmlns="http://www.w3.org/2000/svg">
<path d="M3.33329 12.6668H4.06529L11.1973 5.53481L10.4653 4.80281L3.33329 11.9348V12.6668ZM2.66663 13.3335V11.6535L11.4533 2.85881C11.5217 2.79793 11.5973 2.75081 11.68 2.71748C11.7626 2.68415 11.8486 2.66748 11.938 2.66748C12.0277 2.66748 12.1144 2.68148 12.198 2.70948C12.2824 2.73793 12.3602 2.78904 12.4313 2.86281L13.142 3.57748C13.2157 3.64859 13.266 3.72637 13.2926 3.81081C13.3197 3.8957 13.3333 3.98059 13.3333 4.06548C13.3333 4.1557 13.318 4.24215 13.2873 4.32481C13.2571 4.40704 13.2086 4.48237 13.142 4.55081L4.34663 13.3335H2.66663ZM10.8246 5.17481L10.4653 4.80281L11.1973 5.53481L10.8246 5.17481Z" fill="#545050"/>
</svg>
