<svg width="33" height="32" viewBox="0 0 33 32" fill="none" xmlns="http://www.w3.org/2000/svg">
<path d="M11.6475 1.0525C8.45019 2.16167 5.69285 4.26692 3.78046 7.05901C1.86808 9.8511 0.901465 13.1829 1.02259 16.5649C1.14372 19.947 2.34621 23.201 4.45343 25.8492C6.56065 28.4973 9.46153 30.3999 12.73 31.2775C15.3798 31.9612 18.156 31.9913 20.82 31.365C23.2333 30.8229 25.4644 29.6634 27.295 28C29.2002 26.2159 30.5831 23.9462 31.295 21.435C32.0685 18.7041 32.2062 15.8324 31.6975 13.04H16.8175V19.2125H25.435C25.2628 20.197 24.8937 21.1366 24.3499 21.9751C23.806 22.8136 23.0986 23.5338 22.27 24.0925C21.2178 24.7888 20.0316 25.2572 18.7875 25.4675C17.5399 25.6996 16.2601 25.6996 15.0125 25.4675C13.7479 25.2063 12.5516 24.6844 11.5 23.935C9.81036 22.739 8.54168 21.0398 7.87499 19.08C7.19721 17.0835 7.19721 14.919 7.87499 12.9225C8.34955 11.523 9.13407 10.2488 10.17 9.195C11.3555 7.96687 12.8563 7.08899 14.5079 6.65769C16.1594 6.22639 17.8979 6.25833 19.5325 6.75C20.8095 7.14181 21.9772 7.8267 22.9425 8.75C23.9142 7.78334 24.8842 6.81417 25.8525 5.8425C26.3525 5.32 26.8975 4.8225 27.39 4.2875C25.9163 2.9163 24.1866 1.84926 22.3 1.1475C18.8642 -0.100022 15.1049 -0.133549 11.6475 1.0525Z" fill="white"/>
<path d="M11.6474 1.0525C15.1046 -0.13436 18.8639 -0.101717 22.2999 1.145C24.1869 1.85152 25.9158 2.9237 27.3874 4.3C26.8874 4.835 26.3599 5.335 25.8499 5.855C24.8799 6.82333 23.9108 7.78833 22.9424 8.75C21.9772 7.82669 20.8094 7.14181 19.5324 6.75C17.8984 6.2566 16.16 6.22282 14.508 6.65235C12.856 7.08189 11.3542 7.95815 10.1674 9.185C9.13153 10.2388 8.34701 11.513 7.87244 12.9125L2.68994 8.9C4.54496 5.2214 7.75681 2.40756 11.6474 1.0525Z" fill="#E33629"/>
<path d="M1.315 12.875C1.59335 11.4944 2.05581 10.1575 2.69 8.9L7.8725 12.9225C7.19472 14.919 7.19472 17.0835 7.8725 19.08C6.14583 20.4133 4.41833 21.7533 2.69 23.1C1.10287 19.9408 0.618829 16.3413 1.315 12.875Z" fill="#F8BD00"/>
<path d="M16.8175 13.0375H31.6975C32.2062 15.8298 32.0686 18.7016 31.295 21.4325C30.5831 23.9437 29.2002 26.2134 27.295 27.9975C25.6225 26.6925 23.9425 25.3975 22.27 24.0925C23.0992 23.5332 23.8069 22.8122 24.3508 21.9728C24.8946 21.1334 25.2634 20.1929 25.435 19.2075H16.8175C16.815 17.1525 16.8175 15.095 16.8175 13.0375Z" fill="#587DBD"/>
<path d="M2.6875 23.1C4.41583 21.7667 6.14333 20.4267 7.87 19.08C8.53802 21.0405 9.80851 22.7397 11.5 23.935C12.5549 24.6809 13.7537 25.1986 15.02 25.455C16.2676 25.687 17.5474 25.687 18.795 25.455C20.0391 25.2447 21.2253 24.7763 22.2775 24.08C23.95 25.385 25.63 26.68 27.3025 27.985C25.4722 29.6493 23.241 30.8097 20.8275 31.3525C18.1635 31.9788 15.3873 31.9487 12.7375 31.265C10.6418 30.7054 8.68419 29.719 6.9875 28.3675C5.19182 26.9416 3.72509 25.1448 2.6875 23.1Z" fill="#319F43"/>
</svg>
