<svg width="16" height="16" viewBox="0 0 16 16" fill="none" xmlns="http://www.w3.org/2000/svg">
<path d="M13.5 3.75011H11.2394C11.1734 2.93628 10.8035 2.1771 10.2033 1.62356C9.60308 1.07003 8.8165 0.762695 8 0.762695C7.1835 0.762695 6.39692 1.07003 5.79669 1.62356C5.19647 2.1771 4.82659 2.93628 4.76062 3.75011H2.5C2.16848 3.75011 1.85054 3.88181 1.61612 4.11623C1.3817 4.35065 1.25 4.66859 1.25 5.00011V12.5001C1.25 12.8316 1.3817 13.1496 1.61612 13.384C1.85054 13.6184 2.16848 13.7501 2.5 13.7501H13.5C13.8315 13.7501 14.1495 13.6184 14.3839 13.384C14.6183 13.1496 14.75 12.8316 14.75 12.5001V5.00011C14.75 4.66859 14.6183 4.35065 14.3839 4.11623C14.1495 3.88181 13.8315 3.75011 13.5 3.75011ZM8 2.25011C8.42078 2.25016 8.82747 2.40181 9.14553 2.67729C9.4636 2.95278 9.67176 3.33364 9.73188 3.75011H6.26813C6.32824 3.33364 6.5364 2.95278 6.85447 2.67729C7.17253 2.40181 7.57922 2.25016 8 2.25011ZM13.25 12.2501H2.75V5.25011H4.75V6.00011C4.75 6.19902 4.82902 6.38979 4.96967 6.53044C5.11032 6.67109 5.30109 6.75011 5.5 6.75011C5.69891 6.75011 5.88968 6.67109 6.03033 6.53044C6.17098 6.38979 6.25 6.19902 6.25 6.00011V5.25011H9.75V6.00011C9.75 6.19902 9.82902 6.38979 9.96967 6.53044C10.1103 6.67109 10.3011 6.75011 10.5 6.75011C10.6989 6.75011 10.8897 6.67109 11.0303 6.53044C11.171 6.38979 11.25 6.19902 11.25 6.00011V5.25011H13.25V12.2501Z" fill="white"/>
</svg>
