<svg width="25" height="24" viewBox="0 0 25 24" fill="none" xmlns="http://www.w3.org/2000/svg">
<g clip-path="url(#clip0_56_920)">
<path d="M24.5 10.5938C24.5 7.10442 21.6612 4.26562 18.1719 4.26562C14.6825 4.26562 11.8438 7.10442 11.8438 10.5938C11.8438 13.8454 14.3091 16.5317 17.4688 16.8826V23.2969C17.4688 23.6852 17.7836 24 18.1719 24C18.5602 24 18.875 23.6852 18.875 23.2969V16.8826C22.0347 16.5317 24.5 13.8454 24.5 10.5938ZM18.1719 15.5156C15.458 15.5156 13.25 13.3077 13.25 10.5938C13.25 7.87983 15.458 5.67188 18.1719 5.67188C20.8858 5.67188 23.0938 7.87983 23.0938 10.5938C23.0938 13.3077 20.8858 15.5156 18.1719 15.5156Z" fill="url(#paint0_linear_56_920)"/>
<path d="M19.5781 8.48438H16.7656C16.3773 8.48438 16.0625 8.79919 16.0625 9.1875V12C16.0625 12.3883 16.3773 12.7031 16.7656 12.7031H19.5781C19.9664 12.7031 20.2812 12.3883 20.2812 12V9.1875C20.2812 8.79919 19.9664 8.48438 19.5781 8.48438ZM18.875 11.2969H17.4688V9.89062H18.875V11.2969Z" fill="url(#paint1_linear_56_920)"/>
<path d="M4.10938 11.2969H1.20312C0.814812 11.2969 0.5 11.6117 0.5 12V14.8125C0.5 15.2008 0.814812 15.5156 1.20312 15.5156H4.10938C4.49769 15.5156 4.8125 15.2008 4.8125 14.8125V12C4.8125 11.6117 4.49769 11.2969 4.10938 11.2969ZM3.40625 14.1094H1.90625V12.7031H3.40625V14.1094Z" fill="url(#paint2_linear_56_920)"/>
<path d="M2.60938 9.89062C3.77248 9.89062 4.71875 8.94436 4.71875 7.78125C4.71875 6.61814 3.77248 5.67188 2.60938 5.67188C1.44627 5.67188 0.5 6.61814 0.5 7.78125C0.5 8.94436 1.44627 9.89062 2.60938 9.89062ZM2.60938 7.07812C2.99708 7.07812 3.3125 7.39355 3.3125 7.78125C3.3125 8.16895 2.99708 8.48438 2.60938 8.48438C2.22167 8.48438 1.90625 8.16895 1.90625 7.78125C1.90625 7.39355 2.22167 7.07812 2.60938 7.07812Z" fill="url(#paint3_linear_56_920)"/>
<path d="M9.73438 5.67188H6.92188C6.53356 5.67188 6.21875 5.98669 6.21875 6.375V9.1875C6.21875 9.57581 6.53356 9.89062 6.92188 9.89062H9.73438C10.1227 9.89062 10.4375 9.57581 10.4375 9.1875V6.375C10.4375 5.98669 10.1227 5.67188 9.73438 5.67188ZM9.03125 8.48438H7.625V7.07812H9.03125V8.48438Z" fill="url(#paint4_linear_56_920)"/>
<path d="M8.32812 11.2969C7.16502 11.2969 6.21875 12.2431 6.21875 13.4062C6.21875 14.5694 7.16502 15.5156 8.32812 15.5156C9.49123 15.5156 10.4375 14.5694 10.4375 13.4062C10.4375 12.2431 9.49123 11.2969 8.32812 11.2969ZM8.32812 14.1094C7.94042 14.1094 7.625 13.794 7.625 13.4062C7.625 13.0185 7.94042 12.7031 8.32812 12.7031C8.71583 12.7031 9.03125 13.0185 9.03125 13.4062C9.03125 13.794 8.71583 14.1094 8.32812 14.1094Z" fill="url(#paint5_linear_56_920)"/>
<path d="M4.10938 0H1.20312C0.814812 0 0.5 0.314812 0.5 0.703125V3.5625C0.5 3.95081 0.814812 4.26562 1.20312 4.26562H4.10938C4.49769 4.26562 4.8125 3.95081 4.8125 3.5625V0.703125C4.8125 0.314812 4.49769 0 4.10938 0ZM3.40625 2.85938H1.90625V1.40625H3.40625V2.85938Z" fill="url(#paint6_linear_56_920)"/>
<path d="M8.32812 0C7.16502 0 6.21875 0.946266 6.21875 2.10938C6.21875 3.27487 7.1608 4.26562 8.32812 4.26562C9.49344 4.26562 10.4375 3.2767 10.4375 2.10938C10.4375 0.946266 9.49123 0 8.32812 0ZM8.32812 2.85938C7.95359 2.85938 7.625 2.50889 7.625 2.10938C7.625 1.72167 7.94042 1.40625 8.32812 1.40625C8.71583 1.40625 9.03125 1.72167 9.03125 2.10938C9.03125 2.50889 8.70266 2.85938 8.32812 2.85938Z" fill="url(#paint7_linear_56_920)"/>
<path d="M12.5469 4.26562H15.3594C15.7477 4.26562 16.0625 3.95081 16.0625 3.5625V0.703125C16.0625 0.314812 15.7477 0 15.3594 0H12.5469C12.1586 0 11.8438 0.314812 11.8438 0.703125V3.5625C11.8438 3.95081 12.1586 4.26562 12.5469 4.26562ZM13.25 1.40625H14.6562V2.85938H13.25V1.40625Z" fill="url(#paint8_linear_56_920)"/>
</g>
<defs>
<linearGradient id="paint0_linear_56_920" x1="18.1719" y1="4.26562" x2="18.1719" y2="24" gradientUnits="userSpaceOnUse">
<stop stop-color="#62CFF4"/>
<stop offset="1" stop-color="#2C67F2"/>
</linearGradient>
<linearGradient id="paint1_linear_56_920" x1="18.1719" y1="8.48438" x2="18.1719" y2="12.7031" gradientUnits="userSpaceOnUse">
<stop stop-color="#62CFF4"/>
<stop offset="1" stop-color="#2C67F2"/>
</linearGradient>
<linearGradient id="paint2_linear_56_920" x1="2.65625" y1="11.2969" x2="2.65625" y2="15.5156" gradientUnits="userSpaceOnUse">
<stop stop-color="#62CFF4"/>
<stop offset="1" stop-color="#2C67F2"/>
</linearGradient>
<linearGradient id="paint3_linear_56_920" x1="2.60938" y1="5.67188" x2="2.60938" y2="9.89062" gradientUnits="userSpaceOnUse">
<stop stop-color="#62CFF4"/>
<stop offset="1" stop-color="#2C67F2"/>
</linearGradient>
<linearGradient id="paint4_linear_56_920" x1="8.32812" y1="5.67188" x2="8.32812" y2="9.89062" gradientUnits="userSpaceOnUse">
<stop stop-color="#62CFF4"/>
<stop offset="1" stop-color="#2C67F2"/>
</linearGradient>
<linearGradient id="paint5_linear_56_920" x1="8.32812" y1="11.2969" x2="8.32812" y2="15.5156" gradientUnits="userSpaceOnUse">
<stop stop-color="#62CFF4"/>
<stop offset="1" stop-color="#2C67F2"/>
</linearGradient>
<linearGradient id="paint6_linear_56_920" x1="2.65625" y1="0" x2="2.65625" y2="4.26562" gradientUnits="userSpaceOnUse">
<stop stop-color="#62CFF4"/>
<stop offset="1" stop-color="#2C67F2"/>
</linearGradient>
<linearGradient id="paint7_linear_56_920" x1="8.32812" y1="0" x2="8.32812" y2="4.26562" gradientUnits="userSpaceOnUse">
<stop stop-color="#62CFF4"/>
<stop offset="1" stop-color="#2C67F2"/>
</linearGradient>
<linearGradient id="paint8_linear_56_920" x1="13.9531" y1="0" x2="13.9531" y2="4.26562" gradientUnits="userSpaceOnUse">
<stop stop-color="#62CFF4"/>
<stop offset="1" stop-color="#2C67F2"/>
</linearGradient>
<clipPath id="clip0_56_920">
<rect width="24" height="24" fill="white" transform="translate(0.5)"/>
</clipPath>
</defs>
</svg>
