<svg width="29" height="28" viewBox="0 0 29 28" fill="none" xmlns="http://www.w3.org/2000/svg">
<g clip-path="url(#clip0_12_546)">
<path d="M9.42313 15.9698C9.16059 15.7074 8.80456 15.5599 8.43333 15.5599C8.0621 15.5599 7.70607 15.7074 7.44353 15.9698C7.21431 16.2008 7.07372 16.5051 7.0464 16.8294C6.88711 16.8113 6.72698 16.8015 6.56667 16.8C5.58641 16.7987 4.6307 17.1066 3.83546 17.6797C3.04023 18.2529 2.44596 19.0622 2.13719 19.9926C1.82841 20.9229 1.82085 21.9269 2.11557 22.8619C2.41029 23.7968 2.99229 24.6149 3.7788 25.2H1.9C1.5287 25.2 1.1726 25.3475 0.910051 25.6101C0.6475 25.8726 0.5 26.2287 0.5 26.6C0.5 26.9713 0.6475 27.3274 0.910051 27.59C1.1726 27.8525 1.5287 28 1.9 28H27.1C27.4713 28 27.8274 27.8525 28.0899 27.59C28.3525 27.3274 28.5 26.9713 28.5 26.6C28.5 26.2287 28.3525 25.8726 28.0899 25.6101C27.8274 25.3475 27.4713 25.2 27.1 25.2H25.3267L26.5643 18.6018C26.8862 18.5065 27.163 18.2984 27.344 18.0157C27.525 17.7329 27.5981 17.3943 27.5498 17.0621C27.5015 16.7298 27.3351 16.4261 27.0811 16.2066C26.827 15.987 26.5024 15.8664 26.1667 15.8667C26.1662 15.4529 26.0285 15.051 25.7752 14.7238C25.5219 14.3967 25.1672 14.1628 24.7667 14.0588V14C24.7661 13.5054 24.6085 13.0238 24.3164 12.6247C24.0244 12.2255 23.613 11.9295 23.1418 11.7793C22.6706 11.6291 22.1638 11.6326 21.6947 11.7892C21.2255 11.9457 20.8183 12.2473 20.5317 12.6504C20.2921 12.5938 20.0437 12.585 19.8008 12.6245C19.5578 12.6641 19.3251 12.7513 19.1159 12.881C18.9067 13.0107 18.7252 13.1804 18.5817 13.3805C18.4383 13.5805 18.3357 13.8069 18.28 14.0467C17.8688 14.1422 17.5021 14.3741 17.2394 14.7045C16.9768 15.035 16.8336 15.4446 16.8333 15.8667C16.4974 15.8659 16.1725 15.9862 15.9181 16.2056C15.6638 16.425 15.497 16.7288 15.4485 17.0612C15.3999 17.3935 15.4728 17.7323 15.6538 18.0153C15.8348 18.2983 16.1118 18.5065 16.4339 18.6018L17.6733 25.2H14.5C14.4993 24.4576 14.204 23.7459 13.6791 23.2209C13.1541 22.696 12.4424 22.4008 11.7 22.4H11.1353C11.2363 21.936 11.2595 21.4585 11.2039 20.987C11.4682 20.9632 11.7203 20.8645 11.9304 20.7024C12.1406 20.5404 12.3002 20.3218 12.3904 20.0722C12.4806 19.8226 12.4977 19.5525 12.4397 19.2935C12.3818 19.0345 12.2511 18.7975 12.0631 18.6102L11.7331 18.2803L27.6231 2.39028C27.7549 2.26068 27.8597 2.10628 27.9315 1.93599C28.0033 1.76569 28.0406 1.58286 28.0414 1.39805C28.0422 1.21324 28.0063 1.03011 27.936 0.859218C27.8656 0.688324 27.7621 0.53305 27.6315 0.402355C27.5008 0.271659 27.3455 0.168127 27.1747 0.097731C27.0038 0.0273349 26.8207 -0.00853222 26.6359 -0.00780156C26.4511 -0.00707089 26.2682 0.0302431 26.0979 0.101988C25.9276 0.173733 25.7732 0.278489 25.6435 0.410214L9.75353 16.3002L9.42313 15.9698ZM18.7 14.9334C18.8238 14.9334 18.9425 14.8842 19.03 14.7967C19.1175 14.7091 19.1667 14.5905 19.1667 14.4667C19.1666 14.3067 19.2076 14.1493 19.2859 14.0098C19.3641 13.8702 19.4769 13.7531 19.6135 13.6697C19.75 13.5863 19.9057 13.5394 20.0656 13.5335C20.2255 13.5276 20.3842 13.5629 20.5265 13.636C20.5827 13.6648 20.6441 13.6819 20.707 13.6863C20.7699 13.6906 20.8331 13.6822 20.8927 13.6615C20.9523 13.6408 21.007 13.6082 21.0537 13.5657C21.1003 13.5232 21.1378 13.4717 21.164 13.4143C21.2983 13.1257 21.5269 12.8915 21.8122 12.7502C22.0975 12.609 22.4224 12.5692 22.7334 12.6374C23.0443 12.7057 23.3227 12.8778 23.5227 13.1255C23.7226 13.3732 23.8322 13.6817 23.8333 14C23.8326 14.1208 23.8169 14.241 23.7867 14.3579C23.7681 14.4321 23.768 14.5097 23.7865 14.5839C23.805 14.6581 23.8414 14.7267 23.8925 14.7835C23.9437 14.8403 24.008 14.8837 24.0799 14.9099C24.1518 14.936 24.229 14.9441 24.3047 14.9334C24.5514 14.9346 24.7876 15.0335 24.9616 15.2084C25.1356 15.3833 25.2333 15.62 25.2333 15.8667H17.7667C17.7667 15.6191 17.865 15.3818 18.04 15.2067C18.2151 15.0317 18.4525 14.9334 18.7 14.9334ZM16.8333 16.8H26.1667C26.2904 16.8 26.4091 16.8492 26.4967 16.9367C26.5842 17.0242 26.6333 17.1429 26.6333 17.2667C26.6333 17.3905 26.5842 17.5092 26.4967 17.5967C26.4091 17.6842 26.2904 17.7334 26.1667 17.7334H16.8333C16.7096 17.7334 16.5909 17.6842 16.5033 17.5967C16.4158 17.5092 16.3667 17.3905 16.3667 17.2667C16.3667 17.1429 16.4158 17.0242 16.5033 16.9367C16.5909 16.8492 16.7096 16.8 16.8333 16.8ZM17.3933 18.6667H25.6067L24.3793 25.2H18.6207L17.3933 18.6667ZM18.2333 26.1334H27.1C27.2238 26.1334 27.3425 26.1825 27.43 26.27C27.5175 26.3576 27.5667 26.4763 27.5667 26.6C27.5667 26.7238 27.5175 26.8425 27.43 26.93C27.3425 27.0175 27.2238 27.0667 27.1 27.0667H1.9C1.77623 27.0667 1.65753 27.0175 1.57002 26.93C1.4825 26.8425 1.43333 26.7238 1.43333 26.6C1.43333 26.4763 1.4825 26.3576 1.57002 26.27C1.65753 26.1825 1.77623 26.1334 1.9 26.1334H18.2333ZM9.36667 22.4C9.2429 22.4 9.1242 22.4492 9.03668 22.5367C8.94917 22.6242 8.9 22.7429 8.9 22.8667C8.9 22.9905 8.94917 23.1092 9.03668 23.1967C9.1242 23.2842 9.2429 23.3334 9.36667 23.3334H11.7C12.1951 23.3334 12.6699 23.53 13.0199 23.8801C13.37 24.2302 13.5667 24.7049 13.5667 25.2H6.56667C5.57653 25.2 4.62694 24.8067 3.9268 24.1066C3.22667 23.4064 2.83333 22.4568 2.83333 21.4667C2.83333 20.4765 3.22667 19.527 3.9268 18.8268C4.62694 18.1267 5.57653 17.7334 6.56667 17.7334C6.82575 17.7359 7.0839 17.7649 7.33713 17.8197C7.3698 17.8654 7.40527 17.9084 7.44353 17.9499L10.083 20.5898C10.1245 20.6281 10.1679 20.6635 10.2137 20.6967C10.2686 20.9497 10.2975 21.2077 10.3 21.4667C10.3 21.7817 10.2603 22.0953 10.181 22.4H9.36667ZM11.4032 19.93C11.3599 19.9733 11.3084 20.0078 11.2517 20.0312C11.1951 20.0547 11.1344 20.0668 11.073 20.0668C11.0117 20.0668 10.951 20.0547 10.8943 20.0312C10.8377 20.0078 10.7862 19.9733 10.7429 19.93L8.1034 17.29C8.01839 17.202 7.97136 17.0841 7.97242 16.9618C7.97348 16.8394 8.02256 16.7224 8.10908 16.6358C8.19561 16.5493 8.31265 16.5002 8.43501 16.4992C8.55737 16.4981 8.67525 16.5451 8.76327 16.6302L9.42267 17.2896L9.81887 17.6858L11.4027 19.2696C11.4902 19.3571 11.5394 19.4758 11.5394 19.5996C11.5394 19.7233 11.4902 19.842 11.4027 19.9295L11.4032 19.93ZM26.3034 1.07008C26.3464 1.02551 26.3979 0.989958 26.4549 0.9655C26.5118 0.941043 26.573 0.928169 26.635 0.927631C26.697 0.927092 26.7584 0.9389 26.8158 0.962364C26.8731 0.985829 26.9252 1.02048 26.9691 1.0643C27.0129 1.10811 27.0475 1.16022 27.071 1.21757C27.0944 1.27492 27.1063 1.33637 27.1057 1.39833C27.1052 1.4603 27.0923 1.52153 27.0678 1.57847C27.0434 1.63541 27.0078 1.6869 26.9633 1.72995L11.0733 17.62L10.8899 17.437L10.4134 16.9601L26.3034 1.07008Z" fill="url(#paint0_linear_12_546)"/>
<path d="M20.1 19.6H19.1667C19.0429 19.6 18.9242 19.6492 18.8367 19.7367C18.7492 19.8242 18.7 19.9429 18.7 20.0667C18.7 20.1904 18.7492 20.3091 18.8367 20.3967C18.9242 20.4842 19.0429 20.5333 19.1667 20.5333H20.1C20.2238 20.5333 20.3425 20.4842 20.43 20.3967C20.5175 20.3091 20.5667 20.1904 20.5667 20.0667C20.5667 19.9429 20.5175 19.8242 20.43 19.7367C20.3425 19.6492 20.2238 19.6 20.1 19.6ZM23.3667 19.6H21.9667C21.8429 19.6 21.7242 19.6492 21.6367 19.7367C21.5492 19.8242 21.5 19.9429 21.5 20.0667C21.5 20.1904 21.5492 20.3091 21.6367 20.3967C21.7242 20.4842 21.8429 20.5333 21.9667 20.5333H23.3667C23.4904 20.5333 23.6091 20.4842 23.6967 20.3967C23.7842 20.3091 23.8333 20.1904 23.8333 20.0667C23.8333 19.9429 23.7842 19.8242 23.6967 19.7367C23.6091 19.6492 23.4904 19.6 23.3667 19.6ZM26.6333 13.0667C26.8172 13.0667 26.9992 13.0305 27.1691 12.9601C27.3389 12.8897 27.4933 12.7866 27.6233 12.6566C27.7533 12.5266 27.8564 12.3723 27.9268 12.2024C27.9971 12.0326 28.0333 11.8505 28.0333 11.6667C28.0333 11.4828 27.9971 11.3008 27.9268 11.1309C27.8564 10.9611 27.7533 10.8067 27.6233 10.6767C27.4933 10.5467 27.3389 10.4436 27.1691 10.3732C26.9992 10.3029 26.8172 10.2667 26.6333 10.2667C26.262 10.2667 25.9059 10.4142 25.6434 10.6767C25.3808 10.9393 25.2333 11.2954 25.2333 11.6667C25.2333 12.038 25.3808 12.3941 25.6434 12.6566C25.9059 12.9192 26.262 13.0667 26.6333 13.0667ZM26.6333 11.2C26.7571 11.2 26.8758 11.2492 26.9633 11.3367C27.0508 11.4242 27.1 11.5429 27.1 11.6667C27.1 11.7904 27.0508 11.9091 26.9633 11.9967C26.8758 12.0842 26.7571 12.1333 26.6333 12.1333C26.5096 12.1333 26.3909 12.0842 26.3034 11.9967C26.2158 11.9091 26.1667 11.7904 26.1667 11.6667C26.1667 11.5429 26.2158 11.4242 26.3034 11.3367C26.3909 11.2492 26.5096 11.2 26.6333 11.2ZM24.3 7.46667C23.9287 7.46667 23.5726 7.61417 23.3101 7.87672C23.0475 8.13927 22.9 8.49536 22.9 8.86667C22.9 9.23797 23.0475 9.59407 23.3101 9.85662C23.5726 10.1192 23.9287 10.2667 24.3 10.2667C24.6713 10.2667 25.0274 10.1192 25.29 9.85662C25.5525 9.59407 25.7 9.23797 25.7 8.86667C25.7 8.49536 25.5525 8.13927 25.29 7.87672C25.0274 7.61417 24.6713 7.46667 24.3 7.46667ZM24.3 9.33333C24.1762 9.33333 24.0575 9.28417 23.97 9.19665C23.8825 9.10913 23.8333 8.99043 23.8333 8.86667C23.8333 8.7429 23.8825 8.6242 23.97 8.53668C24.0575 8.44917 24.1762 8.4 24.3 8.4C24.4238 8.4 24.5425 8.44917 24.63 8.53668C24.7175 8.6242 24.7667 8.7429 24.7667 8.86667C24.7667 8.99043 24.7175 9.10913 24.63 9.19665C24.5425 9.28417 24.4238 9.33333 24.3 9.33333ZM13.0958 4.13304e-08C12.9743 -5.10423e-05 12.8576 0.0472535 12.7705 0.131865C12.6834 0.216476 12.6327 0.331726 12.6291 0.453133V0.466667C12.6291 0.6384 12.5867 4.66667 8.89113 4.66667C8.76737 4.66667 8.64867 4.71583 8.56115 4.80335C8.47363 4.89087 8.42447 5.00957 8.42447 5.13333C8.42447 5.2571 8.47363 5.3758 8.56115 5.46332C8.64867 5.55083 8.76737 5.6 8.89113 5.6C12.5722 5.6 12.6287 9.6292 12.6291 9.8C12.6275 9.92377 12.675 10.0431 12.7614 10.1318C12.8477 10.2205 12.9657 10.2713 13.0895 10.273C13.2133 10.2746 13.3326 10.2271 13.4213 10.1407C13.51 10.0544 13.5608 9.93637 13.5625 9.8126V9.8C13.5625 9.62827 13.6049 5.6 17.3 5.6C17.4238 5.6 17.5425 5.55083 17.63 5.46332C17.7175 5.3758 17.7667 5.2571 17.7667 5.13333C17.7667 5.00957 17.7175 4.89087 17.63 4.80335C17.5425 4.71583 17.4238 4.66667 17.3 4.66667C13.6273 4.66667 13.5634 0.653333 13.5625 0.466667C13.5625 0.342899 13.5133 0.224201 13.4258 0.136684C13.3383 0.0491666 13.2196 4.13304e-08 13.0958 4.13304e-08ZM15.1729 5.13333C14.2173 5.63744 13.4787 6.47316 13.0958 7.48347C12.7129 6.47316 11.9743 5.63744 11.0187 5.13333C11.9743 4.62923 12.7129 3.79351 13.0958 2.7832C13.4787 3.79351 14.2173 4.62923 15.1729 5.13333ZM3.3 14.0023V14.0051C3.30068 14.1289 3.3505 14.2473 3.4385 14.3344C3.5265 14.4214 3.64547 14.4699 3.76923 14.4692C3.893 14.4686 4.01143 14.4187 4.09846 14.3307C4.1855 14.2427 4.23401 14.1238 4.23333 14C4.23333 13.8857 4.27253 11.2 6.56667 11.2C6.69043 11.2 6.80913 11.1508 6.89665 11.0633C6.98417 10.9758 7.03333 10.8571 7.03333 10.7333C7.03333 10.6096 6.98417 10.4909 6.89665 10.4033C6.80913 10.3158 6.69043 10.2667 6.56667 10.2667C4.27253 10.2667 4.23333 7.58007 4.23333 7.46667V7.46387C4.23296 7.3401 4.18344 7.22155 4.09566 7.13429C4.00788 7.04704 3.88903 6.99823 3.76527 6.9986C3.6415 6.99897 3.52295 7.04849 3.43569 7.13627C3.34844 7.22405 3.29963 7.3429 3.3 7.46667C3.3 7.581 3.2608 10.2667 0.966667 10.2667C0.842899 10.2667 0.724201 10.3158 0.636684 10.4033C0.549167 10.4909 0.5 10.6096 0.5 10.7333C0.5 10.8571 0.549167 10.9758 0.636684 11.0633C0.724201 11.1508 0.842899 11.2 0.966667 11.2C3.2608 11.2 3.3 13.8866 3.3 14V14.0023ZM2.6728 10.7333C3.14543 10.4183 3.52353 9.98063 3.76667 9.46727C4.0098 9.98063 4.3879 10.4183 4.86053 10.7333C4.388 11.0485 4.00992 11.4861 3.76667 11.9994C3.52341 11.4861 3.14534 11.0485 2.6728 10.7333ZM5.53673 3.82993L6.23673 4.52993C6.32475 4.61494 6.44263 4.66198 6.56499 4.66091C6.68735 4.65985 6.80439 4.61077 6.89092 4.52425C6.97744 4.43773 7.02652 4.32068 7.02758 4.19832C7.02864 4.07596 6.98161 3.95808 6.8966 3.87007L6.1966 3.17007C6.15355 3.1255 6.10206 3.08994 6.04512 3.06549C5.98819 3.04103 5.92695 3.02815 5.86499 3.02762C5.80302 3.02708 5.74157 3.03889 5.68422 3.06235C5.62687 3.08581 5.57477 3.12047 5.53095 3.16428C5.48713 3.2081 5.45248 3.2602 5.42902 3.31755C5.40555 3.37491 5.39374 3.43636 5.39428 3.49832C5.39482 3.56028 5.4077 3.62152 5.43215 3.67846C5.45661 3.73539 5.49216 3.78688 5.53673 3.82993ZM4.13673 2.42993C4.22475 2.51494 4.34263 2.56198 4.46499 2.56091C4.58735 2.55985 4.70439 2.51077 4.79092 2.42425C4.87744 2.33772 4.92652 2.22068 4.92758 2.09832C4.92864 1.97596 4.88161 1.85808 4.7966 1.77007L4.0966 1.07007C4.00859 0.98506 3.8907 0.938022 3.76835 0.939085C3.64599 0.940149 3.52894 0.989228 3.44242 1.07575C3.35589 1.16228 3.30682 1.27932 3.30575 1.40168C3.30469 1.52404 3.35173 1.64192 3.43673 1.72993L4.13673 2.42993ZM3.43673 4.52993C3.52425 4.61742 3.64292 4.66657 3.76667 4.66657C3.89041 4.66657 4.00909 4.61742 4.0966 4.52993L4.7966 3.82993C4.88161 3.74192 4.92864 3.62404 4.92758 3.50168C4.92652 3.37932 4.87744 3.26228 4.79092 3.17575C4.70439 3.08923 4.58735 3.04015 4.46499 3.03909C4.34263 3.03802 4.22475 3.08506 4.13673 3.17007L3.43673 3.87007C3.34925 3.95758 3.3001 4.07626 3.3001 4.2C3.3001 4.32374 3.34925 4.44242 3.43673 4.52993ZM5.86667 2.56667C5.99042 2.56664 6.1091 2.51746 6.1966 2.42993L6.8966 1.72993C6.94117 1.68688 6.97672 1.63539 7.00118 1.57846C7.02564 1.52152 7.03851 1.46028 7.03905 1.39832C7.03959 1.33636 7.02778 1.27491 7.00432 1.21755C6.98085 1.1602 6.9462 1.1081 6.90238 1.06428C6.85857 1.02047 6.80646 0.985814 6.74911 0.96235C6.69176 0.938886 6.63031 0.927078 6.56835 0.927617C6.50638 0.928155 6.44515 0.941029 6.38821 0.965486C6.33128 0.989944 6.27978 1.0255 6.23673 1.07007L5.53673 1.77007C5.47149 1.83533 5.42706 1.91847 5.40906 2.00899C5.39106 2.0995 5.4003 2.19331 5.43562 2.27857C5.47093 2.36383 5.53073 2.43671 5.60745 2.48799C5.68418 2.53927 5.77438 2.56665 5.86667 2.56667Z" fill="url(#paint1_linear_12_546)"/>
</g>
<defs>
<linearGradient id="paint0_linear_12_546" x1="45" y1="-2" x2="14.5" y2="28" gradientUnits="userSpaceOnUse">
<stop stop-color="#2C67F2"/>
<stop offset="1" stop-color="#62CFF4"/>
</linearGradient>
<linearGradient id="paint1_linear_12_546" x1="44.2583" y1="-1.46053" x2="22.7268" y2="26.9459" gradientUnits="userSpaceOnUse">
<stop stop-color="#2C67F2"/>
<stop offset="1" stop-color="#62CFF4"/>
</linearGradient>
<clipPath id="clip0_12_546">
<rect width="28" height="28" fill="white" transform="translate(0.5)"/>
</clipPath>
</defs>
</svg>
