<svg width="16" height="16" viewBox="0 0 16 16" fill="none" xmlns="http://www.w3.org/2000/svg">
<path d="M11.59 14.0001C10.8469 14.0001 10.2167 13.7414 9.69932 13.2241C9.18199 12.7059 8.92332 12.0756 8.92332 11.3334C8.92332 10.5912 9.18199 9.96096 9.69932 9.44274C10.2167 8.92541 10.8469 8.66674 11.59 8.66674C12.3322 8.66674 12.9622 8.92541 13.48 9.44274C13.9978 9.96008 14.2567 10.5903 14.2567 11.3334C14.2567 12.0761 13.9978 12.7063 13.48 13.2241C12.9622 13.7419 12.3322 14.0005 11.59 14.0001ZM11.846 11.2234V9.66674C11.846 9.5983 11.8204 9.5383 11.7693 9.48674C11.7178 9.43563 11.6578 9.41008 11.5893 9.41008C11.5213 9.41008 11.4615 9.43585 11.41 9.48741C11.3589 9.53852 11.3333 9.5983 11.3333 9.66674V11.2221C11.3333 11.2901 11.3458 11.3559 11.3707 11.4194C11.3955 11.4834 11.4369 11.5445 11.4947 11.6027L12.5113 12.6194C12.5611 12.6687 12.6198 12.6956 12.6873 12.7001C12.7549 12.7045 12.8175 12.6776 12.8753 12.6194C12.9335 12.5616 12.9627 12.501 12.9627 12.4374C12.9627 12.3739 12.9338 12.3132 12.876 12.2554L11.846 11.2234ZM3.74332 13.3334C3.44732 13.3334 3.19399 13.2279 2.98332 13.0167C2.77221 12.8061 2.66666 12.5527 2.66666 12.2567V3.74341C2.66666 3.44741 2.77221 3.19407 2.98332 2.98341C3.19399 2.7723 3.44732 2.66674 3.74332 2.66674H6.83466C6.89688 2.40585 7.03532 2.18674 7.24999 2.00941C7.46466 1.83207 7.71466 1.74341 7.99999 1.74341C8.29066 1.74341 8.54266 1.8323 8.75599 2.01007C8.96932 2.18696 9.1071 2.40585 9.16932 2.66674H12.256C12.5524 2.66674 12.806 2.7723 13.0167 2.98341C13.2278 3.19407 13.3333 3.44741 13.3333 3.74341V6.94874C13.3333 7.04341 13.3013 7.12252 13.2373 7.18608C13.1733 7.25008 13.094 7.28208 12.9993 7.28208C12.9051 7.28208 12.826 7.25008 12.762 7.18608C12.6984 7.12252 12.6667 7.04341 12.6667 6.94874V3.74341C12.6667 3.64119 12.624 3.54719 12.5387 3.46141C12.4529 3.37607 12.3589 3.33341 12.2567 3.33341H10.6667V4.28207C10.6667 4.43452 10.6155 4.56252 10.5133 4.66607C10.4111 4.76919 10.2844 4.82074 10.1333 4.82074H5.86666C5.71555 4.82074 5.58888 4.76919 5.48666 4.66607C5.38443 4.56252 5.33332 4.43452 5.33332 4.28207V3.33341H3.74332C3.6411 3.33341 3.5471 3.37607 3.46132 3.46141C3.37599 3.54719 3.33332 3.64119 3.33332 3.74341V12.2567C3.33332 12.3763 3.37177 12.4745 3.44866 12.5514C3.52555 12.6283 3.62377 12.6667 3.74332 12.6667H7.62799C7.72266 12.6667 7.80199 12.6987 7.86599 12.7627C7.92999 12.8267 7.96177 12.9061 7.96132 13.0007C7.96132 13.095 7.92955 13.1741 7.86599 13.2381C7.80199 13.3016 7.72266 13.3334 7.62799 13.3334H3.74332ZM8.00199 3.48674C8.15532 3.48674 8.2831 3.43519 8.38532 3.33207C8.48755 3.22808 8.53866 3.09963 8.53866 2.94674C8.53866 2.79341 8.48688 2.66563 8.38332 2.56341C8.27932 2.46119 8.15088 2.41007 7.99799 2.41007C7.84466 2.41007 7.71688 2.46207 7.61466 2.56607C7.51243 2.66963 7.46132 2.79785 7.46132 2.95074C7.46132 3.10407 7.51332 3.23185 7.61732 3.33407C7.72088 3.4363 7.8491 3.48674 8.00199 3.48674Z" fill="white"/>
</svg>
