<svg width="16" height="16" viewBox="0 0 16 16" fill="none" xmlns="http://www.w3.org/2000/svg">
<path d="M12.6667 6.95008L8.94999 10.6667C8.81666 10.8001 8.66666 10.9001 8.49999 10.9667C8.33333 11.0334 8.16666 11.0667 7.99999 11.0667C7.83333 11.0667 7.66666 11.0334 7.49999 10.9667C7.33333 10.9001 7.18333 10.8001 7.04999 10.6667L2.46666 6.08341C2.34444 5.96119 2.28333 5.80853 2.28333 5.62541C2.28333 5.4423 2.34444 5.28386 2.46666 5.15008C2.59999 5.01675 2.75844 4.95008 2.94199 4.95008C3.12555 4.95008 3.28377 5.01675 3.41666 5.15008L7.99999 9.73342L11.7333 6.00008H9.33333C9.14444 6.00008 8.98621 5.93608 8.85866 5.80808C8.7311 5.68008 8.6671 5.52186 8.66666 5.33341C8.66666 5.14453 8.73066 4.9863 8.85866 4.85875C8.98666 4.73119 9.14488 4.66719 9.33333 4.66675H13.3333C13.5222 4.66675 13.6807 4.73075 13.8087 4.85875C13.9367 4.98675 14.0004 5.14497 14 5.33341V9.33342C14 9.5223 13.936 9.68075 13.808 9.80875C13.68 9.93675 13.5218 10.0005 13.3333 10.0001C13.1444 10.0001 12.9862 9.93608 12.8587 9.80808C12.7311 9.68008 12.6671 9.52186 12.6667 9.33342V6.95008Z" fill="white"/>
</svg>
