<svg width="49" height="48" viewBox="0 0 49 48" fill="none" xmlns="http://www.w3.org/2000/svg">
<path d="M45.5 13.5C45.5 7.71 40.79 3 35 3C30.7625 3 27.113 5.5275 25.4555 9.15L22.121 7.635C21.9259 7.5465 21.7142 7.50071 21.5 7.50071C21.2858 7.50071 21.0741 7.5465 20.879 7.635L4.379 15.135C4.11683 15.254 3.89451 15.4461 3.73862 15.6881C3.58274 15.9302 3.49989 16.2121 3.5 16.5V36C3.5 36.5895 3.8435 37.122 4.379 37.365L20.879 44.865C21.0741 44.9535 21.2858 44.9993 21.5 44.9993C21.7142 44.9993 21.9259 44.9535 22.121 44.865L38.621 37.365C38.8832 37.246 39.1055 37.0539 39.2614 36.8119C39.4173 36.5698 39.5001 36.2879 39.5 36V22.9725C43.04 21.282 45.5 17.6775 45.5 13.5ZM21.5 10.6485L24.611 12.0615C24.541 12.5379 24.504 13.0185 24.5 13.5C24.5 15.9405 25.3445 18.183 26.7455 19.968L21.5 22.353L8.6255 16.5L21.5 10.6485ZM6.5 18.8295L20 24.9645V41.1705L6.5 35.0355V18.8295ZM36.5 35.034L23 41.169V24.9675L29.111 22.1895C30.8471 23.3718 32.8996 24.0027 35 24C35.51 24 36.008 23.9505 36.5 23.88V35.034ZM35 21C30.8645 21 27.5 17.6355 27.5 13.5C27.5 9.3645 30.8645 6 35 6C39.1355 6 42.5 9.3645 42.5 13.5C42.5 17.6355 39.1355 21 35 21Z" fill="url(#paint0_linear_79_2271)"/>
<path d="M39.5 12H36.5V9C36.5 8.60218 36.342 8.22064 36.0607 7.93934C35.7794 7.65804 35.3978 7.5 35 7.5C34.6022 7.5 34.2206 7.65804 33.9393 7.93934C33.658 8.22064 33.5 8.60218 33.5 9V12H30.5C30.1022 12 29.7206 12.158 29.4393 12.4393C29.158 12.7206 29 13.1022 29 13.5C29 13.8978 29.158 14.2794 29.4393 14.5607C29.7206 14.842 30.1022 15 30.5 15H33.5V18C33.5 18.3978 33.658 18.7794 33.9393 19.0607C34.2206 19.342 34.6022 19.5 35 19.5C35.3978 19.5 35.7794 19.342 36.0607 19.0607C36.342 18.7794 36.5 18.3978 36.5 18V15H39.5C39.8978 15 40.2794 14.842 40.5607 14.5607C40.842 14.2794 41 13.8978 41 13.5C41 13.1022 40.842 12.7206 40.5607 12.4393C40.2794 12.158 39.8978 12 39.5 12Z" fill="url(#paint1_linear_79_2271)"/>
<defs>
<linearGradient id="paint0_linear_79_2271" x1="24.5" y1="3" x2="24.5" y2="44.9993" gradientUnits="userSpaceOnUse">
<stop stop-color="#8F2CF2"/>
<stop offset="0.815069" stop-color="#2C67F2"/>
</linearGradient>
<linearGradient id="paint1_linear_79_2271" x1="35" y1="7.5" x2="35" y2="19.5" gradientUnits="userSpaceOnUse">
<stop stop-color="#8F2CF2"/>
<stop offset="0.815069" stop-color="#2C67F2"/>
</linearGradient>
</defs>
</svg>
