<svg width="29" height="28" viewBox="0 0 29 28" fill="none" xmlns="http://www.w3.org/2000/svg">
<g clip-path="url(#clip0_12_612)">
<path d="M19.84 15.5312C20.0989 15.5312 20.3088 15.3214 20.3088 15.0625C20.3088 14.8036 20.0989 14.5938 19.84 14.5938C19.5812 14.5938 19.3713 14.8036 19.3713 15.0625C19.3713 15.3214 19.5812 15.5312 19.84 15.5312Z" fill="url(#paint0_linear_12_612)"/>
<path d="M19.9205 17.0711C19.6646 17.033 19.426 17.21 19.3881 17.4661C19.26 18.3312 18.5288 19.0486 17.4321 19.3854C16.2599 19.7453 14.6328 19.6247 13.6402 18.5438C13.4651 18.3531 13.1686 18.3405 12.9779 18.5156C12.7872 18.6907 12.7746 18.9872 12.9497 19.1779C13.5243 19.8036 14.3047 20.2301 15.2066 20.4111C15.5251 20.4751 15.8554 20.5068 16.188 20.5068C16.7016 20.5068 17.2203 20.4311 17.7073 20.2816C19.1581 19.8361 20.1331 18.835 20.3155 17.6034C20.3534 17.3473 20.1766 17.109 19.9205 17.0711Z" fill="url(#paint1_linear_12_612)"/>
<path d="M26.4356 12.9255C25.5836 11.9378 24.4077 11.2974 22.9922 11.0402C24.3474 10.1257 25.5163 9.21555 26.3497 8.42139C27.6205 7.21056 28.0465 6.35969 27.6908 5.7438C27.2949 5.05783 26.152 5.06256 24.0939 5.75884C22.355 6.34713 20.1887 7.36886 17.9942 8.63589C17.6172 8.85363 17.2431 9.07654 16.8722 9.30456C16.5997 8.53502 16.7794 7.65597 17.3807 6.89373C17.831 6.3228 17.9315 5.59764 17.6431 5.00116C17.3408 4.37598 16.6772 4.00169 15.867 4H15.8449C12.9853 4 10.1882 5.12833 7.969 7.17714C5.74703 9.22848 4.38672 11.944 4.13866 14.8235C3.8402 18.2913 4.9487 21.5882 7.25987 24.1069C9.53022 26.581 12.7489 28 16.0906 28C17.8896 28 19.5785 27.6708 21.1103 27.0216C22.5109 26.4279 23.7547 25.5802 24.8071 24.502C25.7829 23.5022 26.5523 22.3512 27.0938 21.0811C27.6092 19.8724 27.8907 18.5916 27.9081 17.3771C27.9335 15.611 27.4243 14.0717 26.4356 12.9255ZM16.927 10.3744C17.4329 10.0556 17.945 9.74669 18.4629 9.44781C20.4919 8.27631 22.5124 7.31139 24.1523 6.73075C25.9574 6.09161 26.6965 6.13333 26.8688 6.21583C26.8539 6.32491 26.7184 6.8102 25.5339 7.90108C24.5447 8.812 23.1003 9.88323 21.4666 10.9174C20.9407 11.2502 20.4082 11.5723 19.8692 11.8834C19.1199 12.3159 18.3712 12.7203 17.6363 13.0905C17.489 12.6602 17.3004 12.2451 17.0731 11.8511C16.852 11.4686 16.5955 11.1077 16.3069 10.7732C16.5124 10.6384 16.7191 10.5055 16.927 10.3744ZM16.787 13.5063C15.4634 14.134 14.2489 14.6126 13.279 14.8902C13.2281 14.6458 13.1386 14.4111 13.0138 14.195C12.8951 13.9898 12.746 13.8039 12.5715 13.6435C13.2976 12.9427 14.3196 12.1308 15.523 11.3003C16.0943 11.9389 16.525 12.6905 16.787 13.5063ZM26.9707 17.3637C26.9039 22.0281 22.7251 27.0625 16.0906 27.0625C13.0108 27.0625 10.0439 25.7542 7.95067 23.4731C5.81912 21.1502 4.79711 18.107 5.07273 14.904C5.54613 9.40844 10.3785 4.9375 15.8449 4.9375H15.866C16.3144 4.93844 16.6546 5.11038 16.7991 5.4093C16.932 5.68408 16.8742 6.02195 16.6445 6.31314C15.7997 7.38423 15.5878 8.70156 16.0652 9.81227C15.8166 9.97223 15.5699 10.1349 15.3249 10.3003C13.8343 11.3061 12.5756 12.3066 11.7382 13.1485C11.103 12.9314 10.4051 12.9947 9.81198 13.3371C8.83811 13.8996 7.55936 16.5211 7.31294 17.0409C7.28043 17.1095 7.26505 17.1849 7.26811 17.2607C7.27117 17.3365 7.29258 17.4104 7.33051 17.4761C7.36844 17.5418 7.42175 17.5973 7.48586 17.6379C7.54997 17.6784 7.62296 17.7028 7.69858 17.709C7.95766 17.73 8.69336 17.783 9.51222 17.783C10.5059 17.783 11.6219 17.7048 12.1558 17.3965C12.4389 17.2333 12.6847 17.0125 12.8773 16.7485C13.0699 16.4845 13.2049 16.183 13.2738 15.8635C14.4234 15.5618 15.9253 14.9715 17.5519 14.179C18.4633 13.7354 19.4006 13.2362 20.338 12.6953C20.8103 12.4224 21.2778 12.1413 21.7403 11.8521C21.7431 11.8523 21.7458 11.8527 21.7485 11.8528C25.6555 11.9648 27.0079 14.773 26.9707 17.3637ZM12.3879 15.4548C12.3735 15.6864 12.3019 15.9108 12.1796 16.1079C12.0573 16.305 11.8881 16.4688 11.687 16.5846C11.2437 16.8407 9.72086 16.8752 8.47047 16.818C9.04586 15.7068 9.83706 14.4053 10.2808 14.149C10.6998 13.9071 11.2063 13.8965 11.6361 14.1207C11.8725 14.244 12.0688 14.4323 12.2017 14.6635C12.3406 14.9031 12.4053 15.1784 12.3879 15.4548Z" fill="url(#paint2_linear_12_612)"/>
<path d="M12.3401 6.8988C11.3062 6.8988 10.4651 7.73993 10.4651 8.7738C10.4651 9.80768 11.3062 10.6488 12.3401 10.6488C13.374 10.6488 14.2151 9.80768 14.2151 8.7738C14.2151 7.73993 13.374 6.8988 12.3401 6.8988ZM12.3401 9.7113C11.8232 9.7113 11.4026 9.29074 11.4026 8.7738C11.4026 8.25687 11.8232 7.8363 12.3401 7.8363C12.857 7.8363 13.2776 8.25687 13.2776 8.7738C13.2776 9.29074 12.857 9.7113 12.3401 9.7113ZM9.99634 19.4946C8.96246 19.4946 8.12134 20.3357 8.12134 21.3696C8.12134 22.4035 8.96246 23.2446 9.99634 23.2446C11.0302 23.2446 11.8713 22.4035 11.8713 21.3696C11.8713 20.3357 11.0302 19.4946 9.99634 19.4946ZM9.99634 22.3071C9.4794 22.3071 9.05884 21.8865 9.05884 21.3696C9.05884 20.8526 9.4794 20.4321 9.99634 20.4321C10.5133 20.4321 10.9338 20.8526 10.9338 21.3696C10.9338 21.8865 10.5133 22.3071 9.99634 22.3071ZM14.6838 22.3071C13.65 22.3071 12.8088 23.1482 12.8088 24.1821C12.8088 25.216 13.65 26.0571 14.6838 26.0571C15.7177 26.0571 16.5588 25.216 16.5588 24.1821C16.5588 23.1482 15.7177 22.3071 14.6838 22.3071ZM14.6838 25.1196C14.1669 25.1196 13.7463 24.699 13.7463 24.1821C13.7463 23.6651 14.1669 23.2446 14.6838 23.2446C15.2008 23.2446 15.6213 23.6651 15.6213 24.1821C15.6213 24.699 15.2008 25.1196 14.6838 25.1196ZM20.3088 21.3696C19.275 21.3696 18.4338 22.2107 18.4338 23.2446C18.4338 24.2785 19.275 25.1196 20.3088 25.1196C21.3427 25.1196 22.1838 24.2785 22.1838 23.2446C22.1838 22.2107 21.3427 21.3696 20.3088 21.3696ZM20.3088 24.1821C19.7919 24.1821 19.3713 23.7615 19.3713 23.2446C19.3713 22.7276 19.7919 22.3071 20.3088 22.3071C20.8258 22.3071 21.2463 22.7276 21.2463 23.2446C21.2463 23.7615 20.8258 24.1821 20.3088 24.1821ZM24.0588 16.6821C23.025 16.6821 22.1838 17.5232 22.1838 18.5571C22.1838 19.591 23.025 20.4321 24.0588 20.4321C25.0927 20.4321 25.9338 19.591 25.9338 18.5571C25.9338 17.5232 25.0927 16.6821 24.0588 16.6821ZM24.0588 19.4946C23.5419 19.4946 23.1213 19.074 23.1213 18.5571C23.1213 18.0401 23.5419 17.6196 24.0588 17.6196C24.5758 17.6196 24.9963 18.0401 24.9963 18.5571C24.9963 19.074 24.5758 19.4946 24.0588 19.4946Z" fill="url(#paint3_linear_12_612)"/>
</g>
<defs>
<linearGradient id="paint0_linear_12_612" x1="19.84" y1="14.5938" x2="19.84" y2="15.5312" gradientUnits="userSpaceOnUse">
<stop stop-color="#62CFF4"/>
<stop offset="1" stop-color="#2C67F2"/>
</linearGradient>
<linearGradient id="paint1_linear_12_612" x1="16.5734" y1="17.0659" x2="16.5734" y2="20.5068" gradientUnits="userSpaceOnUse">
<stop stop-color="#62CFF4"/>
<stop offset="1" stop-color="#2C67F2"/>
</linearGradient>
<linearGradient id="paint2_linear_12_612" x1="16" y1="4" x2="16" y2="28" gradientUnits="userSpaceOnUse">
<stop stop-color="#62CFF4"/>
<stop offset="1" stop-color="#2C67F2"/>
</linearGradient>
<linearGradient id="paint3_linear_12_612" x1="17.0276" y1="6.8988" x2="17.0276" y2="26.0571" gradientUnits="userSpaceOnUse">
<stop stop-color="#62CFF4"/>
<stop offset="1" stop-color="#2C67F2"/>
</linearGradient>
<clipPath id="clip0_12_612">
<rect width="24" height="24" fill="white" transform="translate(4 4)"/>
</clipPath>
</defs>
</svg>
