<svg width="29" height="28" viewBox="0 0 29 28" fill="none" xmlns="http://www.w3.org/2000/svg">
<path d="M12.652 17.1733L10.3887 14.9053C10.3307 14.8469 10.2582 14.8049 10.1787 14.7836C10.0992 14.7623 10.0155 14.7624 9.93602 14.784C9.77269 14.8307 9.64669 14.9567 9.60935 15.12C9.21269 16.6973 9.66535 18.326 10.8087 19.474C11.9754 20.6407 13.6414 21.084 15.2234 20.6593L20.1654 25.6013C20.254 25.69 20.3707 25.7367 20.4967 25.7367H25.7C25.8867 25.7367 26.0594 25.6247 26.1294 25.4473C26.204 25.2747 26.162 25.074 26.0267 24.9387L18.4854 17.3973C18.9054 15.8153 18.4667 14.1493 17.3 12.9873C16.152 11.8393 14.528 11.3913 12.9507 11.7833C12.7874 11.8253 12.6567 11.9467 12.6147 12.11C12.568 12.2733 12.6147 12.446 12.7314 12.5627L14.9947 14.8307L14.584 16.758L12.652 17.1733ZM15.8347 14.3547L14.066 12.5813H14.0707C15.0274 12.5813 15.9467 12.9547 16.642 13.65C17.6267 14.63 17.9627 16.058 17.5194 17.3833C17.4634 17.5513 17.5054 17.738 17.6314 17.8593L24.5754 24.8033H20.6927L15.69 19.8053C15.629 19.7442 15.5521 19.7013 15.468 19.6815C15.3839 19.6617 15.2959 19.6658 15.214 19.6933C13.8887 20.1367 12.4607 19.8007 11.476 18.816C10.776 18.116 10.4027 17.1967 10.4074 16.2353L12.176 18.0087C12.288 18.1207 12.4467 18.1673 12.6054 18.1347L15.0787 17.6073C15.2607 17.57 15.4007 17.43 15.438 17.248L15.9654 14.7793C15.9934 14.6253 15.9467 14.462 15.8347 14.3547Z" fill="url(#paint0_linear_37_212)"/>
<path d="M3.29534 10.3413L4.90534 10.3507H4.91001C5.16668 10.3507 5.37668 10.1453 5.37668 9.88867C5.37668 9.632 5.17134 9.422 4.91468 9.41733L3.77134 9.41267L3.79934 4.41933L7.46734 4.44267L7.43934 9.436L6.40801 9.43133C6.17001 9.43133 5.94134 9.63667 5.93668 9.89333C5.93668 10.15 6.14201 10.36 6.39868 10.3647L7.44868 10.3693C7.49727 10.7181 7.66968 11.0377 7.93442 11.2699C8.19915 11.5021 8.53856 11.6313 8.89068 11.634L10.468 11.6433H10.4773C10.8647 11.6433 11.2333 11.494 11.5087 11.2187C11.7373 10.9947 11.8773 10.7053 11.924 10.3973L16.978 10.43C17.0266 10.7788 17.199 11.0984 17.4637 11.3306C17.7285 11.5628 18.0679 11.692 18.42 11.6947L19.9973 11.704H20.0067C20.394 11.704 20.7627 11.5547 21.0427 11.2793C21.2713 11.0553 21.4113 10.7707 21.458 10.458L25.6113 10.4813H25.616C25.8727 10.4813 26.0827 10.276 26.0827 10.0193L26.12 4.09267C26.12 3.97133 26.0733 3.85 25.9847 3.76133C25.896 3.67267 25.7793 3.626 25.6533 3.62133L21.5 3.58867C21.4514 3.23991 21.279 2.92026 21.0143 2.68808C20.7495 2.4559 20.4101 2.32668 20.058 2.324L18.4807 2.31467H18.4713C17.7387 2.31467 17.132 2.856 17.0247 3.56067L11.9707 3.53267C11.9221 3.18391 11.7497 2.86426 11.4849 2.63208C11.2202 2.3999 10.8808 2.27068 10.5287 2.268L8.95134 2.25867H8.94201C8.20934 2.25867 7.60268 2.8 7.49534 3.50467L3.34201 3.48133H3.33734C3.08068 3.48133 2.87068 3.68667 2.87068 3.94333L2.83334 9.87C2.83334 9.99133 2.88001 10.1127 2.96868 10.2013C3.05734 10.29 3.17401 10.3413 3.29534 10.3413ZM16.9687 9.492L11.9567 9.45933L11.9847 4.466L16.9967 4.494L16.9687 9.492ZM25.154 9.53867L21.486 9.51533L21.514 4.522L25.182 4.54533L25.154 9.53867ZM18.4713 3.248C18.476 3.248 18.476 3.248 18.4713 3.248L20.0533 3.25733C20.198 3.25733 20.3333 3.31333 20.4313 3.416C20.5293 3.51867 20.5853 3.654 20.5853 3.79867L20.548 10.2247C20.548 10.3693 20.492 10.5047 20.3893 10.6027C20.2867 10.7053 20.1513 10.766 20.0067 10.7567L18.4293 10.7473C18.2847 10.7473 18.154 10.6913 18.0513 10.5887C17.9487 10.486 17.8973 10.3507 17.8973 10.206L17.9347 3.78C17.9393 3.49067 18.1773 3.248 18.4713 3.248ZM8.94201 3.192L10.524 3.20133C10.6687 3.20133 10.804 3.25733 10.902 3.36C11.0047 3.46267 11.056 3.598 11.056 3.74267L11.0187 10.1687C11.0187 10.3133 10.9627 10.4487 10.86 10.5467C10.7573 10.6447 10.6267 10.7007 10.482 10.7007H10.4773L8.90001 10.696C8.75534 10.696 8.62001 10.64 8.52201 10.5373C8.47216 10.487 8.43286 10.4272 8.40641 10.3615C8.37997 10.2958 8.36691 10.2255 8.36801 10.1547L8.40534 3.72867C8.40534 3.43 8.64334 3.192 8.94201 3.192ZM5.56801 15.134H5.57734C6.41268 15.134 7.09401 14.4573 7.09868 13.622C7.10334 12.95 6.24468 11.592 5.98334 11.1907C5.94122 11.1263 5.88378 11.0735 5.81617 11.0368C5.74856 11.0001 5.67291 10.9809 5.59601 10.9807C5.44668 10.9573 5.29268 11.0553 5.20868 11.186C4.94268 11.5827 4.06534 12.9313 4.06068 13.6033C4.05858 13.803 4.09597 14.001 4.17069 14.1862C4.24541 14.3713 4.35599 14.5398 4.49607 14.6821C4.63615 14.8243 4.80297 14.9375 4.98693 15.015C5.17089 15.0926 5.36837 15.133 5.56801 15.134ZM5.58201 12.3293C5.91801 12.9127 6.16068 13.4447 6.16068 13.6173C6.16068 13.9393 5.90868 14.2007 5.56801 14.2007C5.24601 14.2007 4.98468 13.9347 4.98468 13.608C4.98934 13.44 5.24134 12.908 5.58201 12.3293Z" fill="url(#paint1_linear_37_212)"/>
<defs>
<linearGradient id="paint0_linear_37_212" x1="17.8172" y1="11.6443" x2="17.8172" y2="25.7367" gradientUnits="userSpaceOnUse">
<stop stop-color="#62CFF4"/>
<stop offset="1" stop-color="#2C67F2"/>
</linearGradient>
<linearGradient id="paint1_linear_37_212" x1="14.4767" y1="2.25867" x2="14.4767" y2="15.134" gradientUnits="userSpaceOnUse">
<stop stop-color="#62CFF4"/>
<stop offset="1" stop-color="#2C67F2"/>
</linearGradient>
</defs>
</svg>
