<svg width="25" height="24" viewBox="0 0 25 24" fill="none" xmlns="http://www.w3.org/2000/svg">
<g clip-path="url(#clip0_56_933)">
<path d="M17.7218 10.8702C17.7218 11.2586 17.407 11.5734 17.0187 11.5734C16.6305 11.5734 16.3156 11.2586 16.3156 10.8702C16.3156 10.4821 16.6305 10.1671 17.0187 10.1671C17.407 10.1671 17.7218 10.4821 17.7218 10.8702Z" fill="url(#paint0_linear_56_933)"/>
<path d="M17.0179 3.38916C15.5906 3.38916 14.4329 4.54419 14.4329 5.97424V5.97516C14.4329 6.36334 14.7476 6.67792 15.136 6.67792C15.5244 6.67792 15.8391 6.36261 15.8391 5.97424C15.8391 5.32422 16.3648 4.79541 17.0189 4.79541C17.6693 4.79541 18.1984 5.32458 18.1984 5.97516C18.1984 6.62555 17.6693 7.15472 17.0189 7.15472C16.6305 7.15472 16.3157 7.46967 16.3157 7.85785V8.61096C16.3157 8.99933 16.6305 9.31409 17.0189 9.31409C17.407 9.31409 17.722 8.99933 17.722 8.61096V8.46393C18.8073 8.15686 19.6047 7.15729 19.6047 5.97516C19.6047 4.54913 18.4447 3.38916 17.0179 3.38916Z" fill="url(#paint1_linear_56_933)"/>
<path d="M7.24707 17.9443C8.12085 17.2639 8.68445 16.203 8.68445 15.0125C8.68445 12.9637 7.01746 11.2969 4.96869 11.2969C2.91992 11.2969 1.25311 12.9637 1.25311 15.0125C1.25311 16.203 1.81671 17.2639 2.69031 17.9443C1.45728 18.6779 0.5 20.0632 0.5 21.7906V23.2969C0.5 23.6852 0.814758 24 1.20312 24H8.73444C9.12262 24 9.43756 23.6852 9.43756 23.2969V21.7906C9.43756 20.0636 8.48047 18.678 7.24707 17.9443ZM2.65936 15.0125C2.65936 13.7391 3.69537 12.7031 4.96887 12.7031C6.24219 12.7031 7.2782 13.7391 7.2782 15.0125C7.2782 16.2859 6.24219 17.322 4.96887 17.322C3.69537 17.322 2.65936 16.2859 2.65936 15.0125ZM8.03131 22.5938H1.90625V21.7906C1.90625 20.0991 3.27478 18.7282 4.96869 18.7282C6.66022 18.7282 8.03113 20.0967 8.03113 21.7906V22.5938H8.03131Z" fill="url(#paint2_linear_56_933)"/>
<path d="M21.5376 0H12.5001C10.8638 0 9.5376 1.32385 9.5376 2.96246V16.5187C9.5376 17.0938 10.1971 17.4302 10.6626 17.0812L13.4875 14.9625H21.5376C23.1738 14.9625 24.5001 13.6386 24.5001 12V2.96246C24.5001 1.32623 23.1762 0 21.5376 0V0ZM23.0938 12C23.0938 12.8602 22.3982 13.5562 21.5376 13.5562H13.2532C13.101 13.5562 12.9531 13.6057 12.8313 13.6968L10.9438 15.1124V2.96246C10.9438 2.10223 11.6395 1.40625 12.5001 1.40625H21.5376C22.3978 1.40625 23.0938 2.10187 23.0938 2.96246V12Z" fill="url(#paint3_linear_56_933)"/>
</g>
<defs>
<linearGradient id="paint0_linear_56_933" x1="17.0187" y1="10.1671" x2="17.0187" y2="11.5734" gradientUnits="userSpaceOnUse">
<stop stop-color="#62CFF4"/>
<stop offset="1" stop-color="#2C67F2"/>
</linearGradient>
<linearGradient id="paint1_linear_56_933" x1="17.0188" y1="3.38916" x2="17.0188" y2="9.31409" gradientUnits="userSpaceOnUse">
<stop stop-color="#62CFF4"/>
<stop offset="1" stop-color="#2C67F2"/>
</linearGradient>
<linearGradient id="paint2_linear_56_933" x1="4.96878" y1="11.2969" x2="4.96878" y2="24" gradientUnits="userSpaceOnUse">
<stop stop-color="#62CFF4"/>
<stop offset="1" stop-color="#2C67F2"/>
</linearGradient>
<linearGradient id="paint3_linear_56_933" x1="17.0188" y1="0" x2="17.0188" y2="17.2229" gradientUnits="userSpaceOnUse">
<stop stop-color="#62CFF4"/>
<stop offset="1" stop-color="#2C67F2"/>
</linearGradient>
<clipPath id="clip0_56_933">
<rect width="24" height="24" fill="white" transform="translate(0.5)"/>
</clipPath>
</defs>
</svg>
