<svg width="101" height="100" viewBox="0 0 101 100" fill="none" xmlns="http://www.w3.org/2000/svg">
<g clip-path="url(#clip0_71_1162)">
<path d="M51 87C71.7107 87 88.5 70.2107 88.5 49.5C88.5 28.7893 71.7107 12 51 12C30.2893 12 13.5 28.7893 13.5 49.5C13.5 70.2107 30.2893 87 51 87Z" fill="#F54343"/>
<path d="M54.0037 50.4014L63.4643 40.9629C63.8785 40.5486 64.1113 39.9867 64.1113 39.4008C64.1113 38.8149 63.8785 38.253 63.4643 37.8387C63.05 37.4244 62.4881 37.1917 61.9022 37.1917C61.3163 37.1917 60.7544 37.4244 60.3401 37.8387L50.9015 47.2992L41.463 37.8387C41.0487 37.4244 40.4868 37.1917 39.9009 37.1917C39.315 37.1917 38.7531 37.4244 38.3388 37.8387C37.9245 38.253 37.6917 38.8149 37.6917 39.4008C37.6917 39.9867 37.9245 40.5486 38.3388 40.9629L47.7993 50.4014L38.3388 59.84C38.1326 60.0445 37.9689 60.2878 37.8572 60.556C37.7455 60.8241 37.688 61.1116 37.688 61.4021C37.688 61.6925 37.7455 61.9801 37.8572 62.2482C37.9689 62.5163 38.1326 62.7596 38.3388 62.9642C38.5433 63.1704 38.7866 63.3341 39.0548 63.4458C39.3229 63.5575 39.6104 63.615 39.9009 63.615C40.1913 63.615 40.4789 63.5575 40.747 63.4458C41.0151 63.3341 41.2584 63.1704 41.463 62.9642L50.9015 53.5036L60.3401 62.9642C60.5446 63.1704 60.7879 63.3341 61.056 63.4458C61.3242 63.5575 61.6117 63.615 61.9022 63.615C62.1926 63.615 62.4802 63.5575 62.7483 63.4458C63.0164 63.3341 63.2597 63.1704 63.4643 62.9642C63.6705 62.7596 63.8341 62.5163 63.9458 62.2482C64.0575 61.9801 64.115 61.6925 64.115 61.4021C64.115 61.1116 64.0575 60.8241 63.9458 60.556C63.8341 60.2878 63.6705 60.0445 63.4643 59.84L54.0037 50.4014Z" fill="white" stroke="white" stroke-width="2" stroke-linecap="round" stroke-linejoin="round"/>
</g>
<defs>
<clipPath id="clip0_71_1162">
<rect width="100" height="100" fill="white" transform="translate(0.5)"/>
</clipPath>
</defs>
</svg>
