<svg width="29" height="28" viewBox="0 0 29 28" fill="none" xmlns="http://www.w3.org/2000/svg">
<g clip-path="url(#clip0_12_604)">
<g clip-path="url(#clip1_12_604)">
<path d="M26.8215 21.0247L20.6154 14.8093C20.5124 14.7114 20.3759 14.6569 20.2339 14.6569C20.0918 14.6569 19.9553 14.7114 19.8523 14.8093L18.6215 16.04L17.1723 14.5939L20.6708 11.077C22.1323 11 24.08 11.0062 24.1662 10.9939C24.5292 10.9385 25.2246 10.3785 27.5785 7.21235C27.6438 7.12283 27.6803 7.01548 27.6831 6.90466V5.48004C27.6829 5.3852 27.6577 5.29209 27.6102 5.21001C27.5627 5.12793 27.4944 5.05977 27.4123 5.01235C27.3303 4.9639 27.2368 4.93834 27.1415 4.93834C27.0463 4.93834 26.9528 4.9639 26.8708 5.01235L24.3815 6.48928C24.1692 6.55697 23.2369 6.77543 22.44 5.64004C21.5785 4.40928 21.9631 3.81851 22.5077 3.35389C23.3209 2.7729 24.1653 2.23672 25.0369 1.74774C25.1156 1.70177 25.1816 1.63689 25.2289 1.55898C25.2762 1.48108 25.3032 1.39261 25.3077 1.30158C25.3111 1.21069 25.2915 1.12041 25.2506 1.03917C25.2097 0.957921 25.1489 0.888358 25.0739 0.836968C24.9969 0.78466 23.1231 -0.467648 19.9046 0.778506C17.4185 1.73851 17.0708 3.00312 17.04 3.14466L16.5108 6.88312L12.9908 10.4062L9.84616 7.25235C9.98247 6.90957 10.0534 6.54431 10.0554 6.17543C10.0561 5.79233 9.98091 5.41288 9.83409 5.05902C9.68726 4.70517 9.47175 4.38393 9.2 4.11389C9.17427 4.08688 9.14534 4.06312 9.11385 4.04312L3.7877 0.578506C3.68478 0.510398 3.5615 0.479934 3.43871 0.492269C3.31592 0.504605 3.20116 0.558981 3.11385 0.646198L0.901542 2.85851C0.814325 2.94582 0.759948 3.06057 0.747613 3.18337C0.735278 3.30616 0.765742 3.42944 0.83385 3.53235L4.3077 8.84928C4.32863 8.88008 4.35232 8.90891 4.37847 8.93543C4.64788 9.20694 4.96864 9.42213 5.32204 9.56845C5.67544 9.71478 6.05443 9.78932 6.43693 9.78774C6.80676 9.78833 7.17331 9.71836 7.51693 9.58158L10.6615 12.7354L6.80923 16.5877L3.11693 17.1108H3.07693C2.93539 17.1447 1.67385 17.4893 0.710773 19.9785C-0.519996 23.197 0.710773 25.0677 0.772311 25.1477C0.823182 25.2221 0.891689 25.2826 0.971698 25.3239C1.05171 25.3653 1.14072 25.3862 1.23077 25.3847C1.3213 25.3814 1.40951 25.3551 1.48704 25.3083C1.56458 25.2615 1.62888 25.1956 1.67385 25.117C2.16323 24.2455 2.6994 23.4012 3.28 22.5877C3.74462 22.0431 4.34462 21.6647 5.56923 22.517C6.7077 23.32 6.49231 24.2585 6.41847 24.4585L4.94154 26.9477C4.89231 27.0292 4.86569 27.1223 4.8644 27.2175C4.86312 27.3126 4.88723 27.4064 4.93425 27.4892C4.98126 27.5719 5.04949 27.6406 5.13189 27.6882C5.2143 27.7359 5.30791 27.7606 5.40308 27.76H6.8277C6.93915 27.7581 7.04702 27.7203 7.13539 27.6524C10.3662 25.2647 10.88 24.5754 10.9231 24.2277C10.9231 24.1539 10.9231 22.2062 11 20.7477L14.8431 16.9231L16.3077 18.3662L15.0769 19.597C14.9762 19.6984 14.9197 19.8356 14.9197 19.9785C14.9197 20.1215 14.9762 20.2586 15.0769 20.36L21.2923 26.5724C21.9904 27.2694 22.9366 27.661 23.9231 27.661C24.9096 27.661 25.8558 27.2694 26.5539 26.5724L26.8339 26.2924C27.1801 25.9473 27.4549 25.5373 27.6423 25.0859C27.8298 24.6344 27.9263 24.1504 27.9263 23.6616C27.9263 23.1728 27.8298 22.6887 27.6423 22.2373C27.4549 21.7858 27.1801 21.3758 26.8339 21.0308L26.8215 21.0247ZM17.4 7.52004C17.4817 7.43612 17.5345 7.32834 17.5508 7.21235L18.0954 3.38466C18.1292 3.29851 18.4892 2.49543 20.2923 1.79697C21.311 1.35375 22.4357 1.21277 23.5323 1.39081C22.9337 1.73719 22.3572 2.1205 21.8062 2.53851C20.3262 3.8062 20.8554 5.26158 21.5569 6.26158C22.6554 7.82158 24.1692 7.74466 24.8123 7.49235C24.8369 7.49235 26.6062 6.43697 26.6062 6.43697V6.74466C25.5969 8.09851 24.3815 9.60312 23.9692 9.93543C23.2615 9.89851 21.2923 9.99389 20.4092 10.0431C20.2758 10.0495 20.1496 10.1054 20.0554 10.2L16.4123 13.8247L15.4892 12.9016L19.0031 9.37235C19.0604 9.3243 19.107 9.26485 19.14 9.19778C19.1731 9.13071 19.1918 9.0575 19.195 8.98281C19.1981 8.90811 19.1857 8.83357 19.1585 8.76394C19.1313 8.6943 19.0899 8.63109 19.037 8.57833C18.984 8.52558 18.9206 8.48443 18.8509 8.45751C18.7811 8.43059 18.7065 8.41849 18.6318 8.42198C18.5572 8.42547 18.484 8.44447 18.4171 8.47778C18.3502 8.51108 18.2909 8.55796 18.2431 8.61543L14.72 12.1354L13.7538 11.1662L17.4 7.52004ZM6.4277 8.71081C5.95963 8.71311 5.50878 8.53453 5.16923 8.21235L1.97231 3.31081L3.56616 1.71697L8.4677 4.92312C8.79371 5.27182 8.97198 5.73325 8.96509 6.21056C8.95821 6.68788 8.76671 7.14397 8.43077 7.48312L7.72616 8.18774C7.55582 8.35833 7.35337 8.49348 7.1305 8.58537C6.90764 8.67727 6.66877 8.72408 6.4277 8.72312V8.71081ZM10.1015 20.1354C10.0066 20.2282 9.95053 20.3536 9.94462 20.4862C9.89539 21.3724 9.8 23.3385 9.84 24.0462C9.5077 24.4585 7.99385 25.677 6.64616 26.6862H6.33847L7.40308 24.8924C7.66462 24.2462 7.74462 22.7385 6.17231 21.637C5.17231 20.9354 3.71077 20.4062 2.44616 21.8862C2.02849 22.4375 1.6452 23.0139 1.29847 23.6124C1.12015 22.5155 1.26225 21.3904 1.7077 20.3724C2.40923 18.5539 3.21539 18.2185 3.29539 18.1724L7.13847 17.6277C7.25484 17.6128 7.36301 17.5598 7.44616 17.477L11.4215 13.4954L12.3908 14.4616L8.50462 18.3508C8.4541 18.4004 8.41397 18.4595 8.38658 18.5247C8.35918 18.59 8.34507 18.66 8.34507 18.7308C8.34507 18.8016 8.35918 18.8716 8.38658 18.9369C8.41397 19.0021 8.4541 19.0613 8.50462 19.1108C8.55417 19.1613 8.61331 19.2015 8.67855 19.2289C8.7438 19.2563 8.81385 19.2704 8.88462 19.2704C8.95538 19.2704 9.02544 19.2563 9.09069 19.2289C9.15593 19.2015 9.21506 19.1613 9.26462 19.1108L13.1508 15.2247L14.0739 16.1477L10.1015 20.1354ZM8.43385 8.98466L8.48923 8.93543L9.19077 8.23389L9.24 8.17851L17.8554 16.7939L17.0492 17.6L8.43385 8.98466ZM26.0615 25.5385L25.7815 25.8216C25.2845 26.3161 24.6119 26.5937 23.9108 26.5937C23.2096 26.5937 22.537 26.3161 22.04 25.8216L16.2092 19.9754L17.44 18.7447L19.0092 17.1785L20.24 15.9477L26.0862 21.7939C26.3314 22.0409 26.5253 22.3339 26.6569 22.6561C26.7884 22.9783 26.855 23.3233 26.8527 23.6713C26.8504 24.0193 26.7793 24.3635 26.6435 24.6839C26.5078 25.0043 26.31 25.2948 26.0615 25.5385Z" fill="url(#paint0_linear_12_604)"/>
<path d="M19.9016 18.8862C19.852 18.8357 19.7929 18.7956 19.7276 18.7682C19.6624 18.7408 19.5923 18.7267 19.5216 18.7267C19.4508 18.7267 19.3807 18.7408 19.3155 18.7682C19.2502 18.7956 19.1911 18.8357 19.1416 18.8862C19.041 18.9872 18.9846 19.1238 18.9846 19.2662C18.9846 19.4087 19.041 19.5453 19.1416 19.6462L23.7569 24.2616C23.807 24.3117 23.8665 24.3515 23.932 24.3786C23.9975 24.4057 24.0676 24.4197 24.1385 24.4197C24.2093 24.4197 24.2795 24.4057 24.345 24.3786C24.4104 24.3515 24.4699 24.3117 24.52 24.2616C24.5701 24.2115 24.6099 24.152 24.637 24.0866C24.6641 24.0211 24.6781 23.9509 24.6781 23.8801C24.6781 23.8092 24.6641 23.7391 24.637 23.6736C24.6099 23.6081 24.5701 23.5486 24.52 23.4985L19.9016 18.8862Z" fill="url(#paint1_linear_12_604)"/>
</g>
</g>
<defs>
<linearGradient id="paint0_linear_12_604" x1="14.0462" y1="0.228149" x2="14.0462" y2="27.7601" gradientUnits="userSpaceOnUse">
<stop stop-color="#62CFF4"/>
<stop offset="1" stop-color="#2C67F2"/>
</linearGradient>
<linearGradient id="paint1_linear_12_604" x1="21.8313" y1="18.7267" x2="21.8313" y2="24.4197" gradientUnits="userSpaceOnUse">
<stop stop-color="#62CFF4"/>
<stop offset="1" stop-color="#2C67F2"/>
</linearGradient>
<clipPath id="clip0_12_604">
<rect width="28" height="28" fill="white" transform="translate(0.5)"/>
</clipPath>
<clipPath id="clip1_12_604">
<rect width="28" height="28" fill="white"/>
</clipPath>
</defs>
</svg>
