<svg width="25" height="24" viewBox="0 0 25 24" fill="none" xmlns="http://www.w3.org/2000/svg">
<g clip-path="url(#clip0_56_940)">
<path d="M21.4347 4.89347L16.7472 0.205969C16.6153 0.0741094 16.4365 0 16.25 0H5.9375C4.51592 0 3.35938 1.15655 3.35938 2.57812V21.4219C3.35938 22.8435 4.51592 24 5.9375 24H19.0625C20.4841 24 21.6406 22.8435 21.6406 21.4219V5.39062C21.6406 5.20416 21.5665 5.02533 21.4347 4.89347ZM16.9531 2.40061L19.24 4.6875H16.9531V2.40061ZM19.0625 22.5938H5.9375C5.29133 22.5938 4.76562 22.068 4.76562 21.4219V2.57812C4.76562 1.93195 5.29133 1.40625 5.9375 1.40625H15.5469V5.39062C15.5469 5.77894 15.8617 6.09375 16.25 6.09375H20.2344V21.4219C20.2344 22.068 19.7087 22.5938 19.0625 22.5938Z" fill="url(#paint0_linear_56_940)"/>
<path d="M17.1875 9.46875C16.299 9.46875 15.5002 8.97506 15.1029 8.18044L15.0039 7.98248C14.8848 7.74422 14.6413 7.59375 14.375 7.59375H10.625C10.3587 7.59375 10.1152 7.74422 9.99608 7.98244L9.89713 8.18034C9.49981 8.97506 8.70102 9.46875 7.8125 9.46875C7.42419 9.46875 7.10938 9.78356 7.10938 10.1719V14.1842C7.10938 15.7618 7.60714 17.2646 8.54881 18.5303C9.49048 19.7959 10.787 20.7045 12.298 21.1578C12.3639 21.1776 12.4319 21.1875 12.5 21.1875C12.5681 21.1875 12.6361 21.1776 12.702 21.1578C14.213 20.7045 15.5095 19.7959 16.4512 18.5303C17.3929 17.2646 17.8906 15.7618 17.8906 14.1842V10.1719C17.8906 9.78356 17.5758 9.46875 17.1875 9.46875ZM16.4844 14.1842C16.4844 16.7275 14.892 18.9367 12.5 19.7464C10.108 18.9367 8.51562 16.7275 8.51562 14.1842V10.8095C9.57973 10.6086 10.5049 9.95634 11.0527 8.99995H13.9473C14.4951 9.9563 15.4203 10.6086 16.4844 10.8095V14.1842Z" fill="url(#paint1_linear_56_940)"/>
<path d="M13.9913 12.5676L11.8368 14.7221L11.0082 13.8935C10.7336 13.6189 10.2884 13.6189 10.0138 13.8935C9.73921 14.168 9.73921 14.6132 10.0138 14.8878L11.3396 16.2136C11.4769 16.3509 11.6569 16.4196 11.8368 16.4196C12.0167 16.4196 12.1967 16.351 12.3339 16.2136L14.9856 13.562C15.2602 13.2874 15.2602 12.8422 14.9856 12.5676C14.7111 12.293 14.2658 12.293 13.9913 12.5676Z" fill="url(#paint2_linear_56_940)"/>
</g>
<defs>
<linearGradient id="paint0_linear_56_940" x1="12.5" y1="0" x2="12.5" y2="24" gradientUnits="userSpaceOnUse">
<stop stop-color="#62CFF4"/>
<stop offset="1" stop-color="#2C67F2"/>
</linearGradient>
<linearGradient id="paint1_linear_56_940" x1="12.5" y1="7.59375" x2="12.5" y2="21.1875" gradientUnits="userSpaceOnUse">
<stop stop-color="#62CFF4"/>
<stop offset="1" stop-color="#2C67F2"/>
</linearGradient>
<linearGradient id="paint2_linear_56_940" x1="12.4997" y1="12.3617" x2="12.4997" y2="16.4196" gradientUnits="userSpaceOnUse">
<stop stop-color="#62CFF4"/>
<stop offset="1" stop-color="#2C67F2"/>
</linearGradient>
<clipPath id="clip0_56_940">
<rect width="24" height="24" fill="white" transform="translate(0.5)"/>
</clipPath>
</defs>
</svg>
