<svg width="29" height="28" viewBox="0 0 29 28" fill="none" xmlns="http://www.w3.org/2000/svg">
<g clip-path="url(#clip0_37_207)">
<path d="M25.4565 0H2.73196C1.16377 0.00147656 -0.106839 1.04524 -0.108704 2.33341V24.7333C-0.108704 25.5066 0.654258 26.1334 1.59578 26.1334V27.5332C1.59574 27.657 1.65555 27.7757 1.76205 27.8632C1.86855 27.9508 2.01302 28 2.16367 28H26.0247C26.3384 28 26.5927 27.7911 26.5927 27.5332V26.1334C27.5339 26.1334 28.2972 25.5066 28.2972 24.7333V2.33341C28.2951 1.04524 27.0247 0.00153125 25.4565 0ZM2.73196 0.933297H25.4565C26.3977 0.933297 27.161 1.56007 27.161 2.33341V5.60011H1.02748V2.33341C1.02748 1.56012 1.79051 0.933297 2.73196 0.933297ZM25.4565 27.0667H2.73196V26.1334H25.4565V27.0667ZM26.5927 25.2001H1.59578C1.52115 25.2001 1.44725 25.188 1.3783 25.1646C1.30934 25.1411 1.24669 25.1067 1.19392 25.0634C1.14114 25.02 1.09928 24.9686 1.07073 24.9119C1.04217 24.8553 1.02748 24.7946 1.02748 24.7333V6.53324H27.161V24.7332C27.161 24.7945 27.1463 24.8553 27.1178 24.9119C27.0892 24.9685 27.0474 25.02 26.9946 25.0634C26.9418 25.1067 26.8792 25.1411 26.8102 25.1645C26.7412 25.188 26.6673 25.2001 26.5927 25.2001Z" fill="url(#paint0_linear_37_207)"/>
<path d="M2.73195 4.66664H9.54921C9.62382 4.66667 9.6977 4.65462 9.76664 4.63118C9.83558 4.60775 9.89822 4.57339 9.951 4.53006C10.0038 4.48674 10.0456 4.4353 10.0742 4.37869C10.1028 4.32207 10.1175 4.26139 10.1175 4.20011V2.33346C10.1175 2.27215 10.1028 2.21145 10.0743 2.15482C10.0457 2.09818 10.0038 2.04672 9.95107 2.00337C9.8983 1.96003 9.83565 1.92565 9.76669 1.9022C9.69774 1.87875 9.62384 1.86668 9.54921 1.8667H2.73195C2.65733 1.86669 2.58344 1.87876 2.51449 1.90221C2.44555 1.92567 2.3829 1.96005 2.33014 2.00339C2.27737 2.04674 2.23552 2.0982 2.20696 2.15483C2.17841 2.21146 2.16372 2.27216 2.16373 2.33346V4.20011C2.16373 4.45768 2.41805 4.66664 2.73195 4.66664ZM3.29991 2.8H8.98125V3.73335H3.29998L3.29991 2.8ZM12.9579 4.66664C13.8993 4.66664 14.6623 4.03993 14.6623 3.26675C14.6623 2.49347 13.8994 1.8667 12.9579 1.8667C12.0167 1.8667 11.2537 2.49342 11.2537 3.26675C11.2537 4.03987 12.0167 4.66664 12.9579 4.66664ZM12.9579 2.8C13.1086 2.79998 13.2531 2.84914 13.3597 2.93665C13.4662 3.02417 13.5261 3.14287 13.5261 3.26664C13.5262 3.39042 13.4663 3.50914 13.3598 3.59667C13.2532 3.6842 13.1087 3.73339 12.958 3.7334C12.8074 3.73342 12.6628 3.68426 12.5563 3.59675C12.4497 3.50923 12.3898 3.39053 12.3898 3.26675C12.3898 3.14298 12.4496 3.02426 12.5562 2.93673C12.6627 2.84919 12.8072 2.80001 12.9579 2.8ZM17.5027 4.66664C18.4441 4.66664 19.2072 4.03993 19.2072 3.26675C19.2072 2.49347 18.4442 1.8667 17.5027 1.8667C16.5616 1.8667 15.7986 2.49342 15.7986 3.26675C15.7986 4.03987 16.5615 4.66664 17.5027 4.66664ZM17.5027 2.8C17.6534 2.79997 17.7979 2.84912 17.9045 2.93663C18.0111 3.02414 18.071 3.14284 18.071 3.26662C18.071 3.39039 18.0112 3.50911 17.9046 3.59665C17.7981 3.68419 17.6536 3.73338 17.5029 3.7334C17.3522 3.73342 17.2077 3.68427 17.1011 3.59677C16.9946 3.50926 16.9347 3.39056 16.9347 3.26678C16.9346 3.143 16.9945 3.02429 17.101 2.93675C17.2075 2.84921 17.352 2.80002 17.5027 2.8ZM20.9116 3.73335H22.0479C22.3614 3.73335 22.6158 3.52444 22.6158 3.26675C22.6159 3.20547 22.6012 3.14479 22.5726 3.08817C22.5441 3.03155 22.5023 2.98009 22.4495 2.93675C22.3968 2.89341 22.3342 2.85902 22.2653 2.83556C22.1963 2.81209 22.1225 2.80001 22.0479 2.8H20.9116C20.8365 2.79933 20.762 2.81091 20.6923 2.83406C20.6227 2.85721 20.5593 2.89148 20.5059 2.93488C20.4525 2.97828 20.4101 3.02995 20.3811 3.08691C20.3522 3.14386 20.3373 3.20496 20.3373 3.26667C20.3373 3.32839 20.3522 3.38949 20.3811 3.44644C20.4101 3.50339 20.4525 3.55506 20.5059 3.59846C20.5593 3.64186 20.6227 3.67613 20.6923 3.69929C20.762 3.72244 20.8365 3.73402 20.9116 3.73335ZM24.3203 3.73335H25.4565C25.6072 3.73335 25.7517 3.68418 25.8582 3.59666C25.9648 3.50914 26.0246 3.39044 26.0246 3.26667C26.0246 3.1429 25.9648 3.0242 25.8582 2.93668C25.7517 2.84916 25.6072 2.8 25.4565 2.8H24.3203C24.2452 2.79933 24.1707 2.81091 24.101 2.83406C24.0314 2.85721 23.968 2.89148 23.9146 2.93488C23.8612 2.97828 23.8188 3.02995 23.7898 3.08691C23.7609 3.14386 23.746 3.20496 23.746 3.26667C23.746 3.32839 23.7609 3.38949 23.7898 3.44644C23.8188 3.50339 23.8612 3.55506 23.9146 3.59846C23.968 3.64186 24.0314 3.67613 24.101 3.69929C24.1707 3.72244 24.2452 3.73402 24.3203 3.73335ZM14.0941 8.40016C9.07413 8.40016 5.0044 11.7429 5.0044 15.8666C5.0044 19.9904 9.07413 23.3335 14.0941 23.3335C19.1143 23.3335 23.1841 19.9905 23.1841 15.8667C23.1781 11.7451 19.112 8.40503 14.0941 8.40016ZM14.0941 22.4002C9.7016 22.4002 6.14058 19.475 6.14058 15.8666C6.14058 12.2584 9.7016 9.33346 14.0941 9.33346C18.4868 9.33346 22.0479 12.2584 22.0479 15.8667C22.0432 19.4733 18.485 22.3963 14.0941 22.4002Z" fill="url(#paint1_linear_37_207)"/>
<path d="M14.0941 9.80003C10.0195 9.79674 6.71275 12.5074 6.70856 15.8545C6.70774 16.6477 6.89639 17.4334 7.2638 18.1669C7.2672 18.1763 7.2638 18.186 7.26826 18.1954C7.27293 18.2048 7.28358 18.2135 7.2893 18.2244C8.87155 21.3098 13.1993 22.7573 16.9554 21.4576C17.9925 21.0987 18.9159 20.5497 19.6551 19.8526C20.3942 19.1555 20.9296 18.3288 21.2201 17.4357C21.2232 17.4281 21.2255 17.4201 21.2274 17.4122C22.2824 14.1891 19.9567 10.8737 16.0326 10.0072C15.4005 9.86759 14.7486 9.79796 14.0941 9.80003ZM14.0941 10.7333C17.5374 10.7267 20.3354 13.0142 20.3434 15.8423C20.3445 16.2241 20.2937 16.6048 20.1918 16.9773C19.8956 17.0578 19.6049 17.1513 19.3209 17.2574C18.5838 17.5716 17.7652 17.7349 16.9348 17.7333C16.2277 17.7488 15.5291 17.6035 14.9162 17.3133C14.1447 16.9607 13.2726 16.7835 12.3899 16.8C10.9469 16.8482 9.52004 17.0683 8.15399 17.4533C7.08305 14.7615 8.87128 11.8666 12.1481 10.9871C12.7763 10.8183 13.4332 10.7327 14.0941 10.7333ZM14.0941 21C11.804 20.9988 9.69776 19.9691 8.60391 18.3163C9.82562 17.9747 11.1005 17.7784 12.3899 17.7333C13.097 17.7179 13.7955 17.8632 14.4083 18.1533C15.1799 18.506 16.052 18.6832 16.9348 18.6666C17.8889 18.6708 18.8311 18.4921 19.6862 18.1445C18.6333 19.8911 16.4669 20.9974 14.0941 21V21Z" fill="url(#paint2_linear_37_207)"/>
</g>
<defs>
<linearGradient id="paint0_linear_37_207" x1="14.0942" y1="0" x2="14.0942" y2="28" gradientUnits="userSpaceOnUse">
<stop stop-color="#62CFF4"/>
<stop offset="1" stop-color="#2C67F2"/>
</linearGradient>
<linearGradient id="paint1_linear_37_207" x1="14.0942" y1="1.8667" x2="14.0942" y2="23.3335" gradientUnits="userSpaceOnUse">
<stop stop-color="#62CFF4"/>
<stop offset="1" stop-color="#2C67F2"/>
</linearGradient>
<linearGradient id="paint2_linear_37_207" x1="14.0951" y1="9.79993" x2="14.0951" y2="21.9346" gradientUnits="userSpaceOnUse">
<stop stop-color="#62CFF4"/>
<stop offset="1" stop-color="#2C67F2"/>
</linearGradient>
<clipPath id="clip0_37_207">
<rect width="28" height="28" fill="white" transform="translate(0.5)"/>
</clipPath>
</defs>
</svg>
