<svg width="121" height="86" viewBox="0 0 121 86" fill="none" xmlns="http://www.w3.org/2000/svg">
<path d="M60.3496 30C56.0528 30 52.2716 28.4151 49.5217 25.6736C46.7717 27.9439 43.0765 29.6145 40.9281 29.6145C38.9945 29.6145 37.6625 28.7578 36.9321 27.0443C34.5259 21.0901 42.7757 5.92624 46.7288 2.15668C49.8225 -0.9275 54.0763 -0.541977 56.4825 2.28519C58.0293 4.16997 59.3613 5.92624 60.5215 7.51117C61.8965 5.49788 63.3574 3.65594 64.5175 2.28519C66.9237 -0.541977 71.1775 -0.9275 74.2712 2.15668C78.2243 5.92624 86.4741 21.0901 84.0679 27.0443C83.4234 28.6293 82.0484 29.6145 80.0289 29.6145C77.9235 29.6145 73.9705 28.0724 71.2635 25.7164C68.3417 28.5007 64.5175 30 60.3496 30ZM51.6701 23.4889L51.5842 23.5746C53.7755 25.7592 56.9122 27.0443 60.3496 27.0443C63.787 27.0443 66.7948 25.8021 69.201 23.5746C67.869 21.8183 66.8807 19.8051 66.8807 17.6204C66.8807 12.0946 75.2165 12.3088 75.2165 17.6204C75.2165 19.8051 74.529 21.647 73.197 23.4889C75.6032 25.5451 78.9118 26.6588 80.0289 26.6588C80.8453 26.6588 81.1461 26.4018 81.318 25.9306C82.0484 24.1743 81.1031 20.1049 78.8688 15.0931C76.8923 10.5953 74.1853 6.22609 72.2088 4.25564C70.3611 2.49937 68.1268 2.62788 66.7948 4.16997C65.5487 5.71206 63.787 7.89669 62.2832 10.167C64.0449 13.037 64.9042 15.2645 64.9042 16.8922C64.9042 23.0178 56.0958 22.8892 56.0958 16.8922C56.0958 15.2645 56.9981 13.037 58.7598 10.167C57.5137 8.32505 56.0528 6.3546 54.2052 4.16997C52.8732 2.62788 50.6389 2.49937 48.7912 4.25564C46.8147 6.22609 44.1077 10.5953 42.1312 15.0931C39.8969 20.1049 38.9945 24.1743 39.682 25.9306C39.8539 26.4018 40.1547 26.6588 40.9711 26.6588C42.2171 26.6588 45.3538 25.3737 47.717 23.3604C47.2874 22.7179 45.8264 20.5761 45.8264 17.6204C45.8264 14.7933 47.8459 13.294 49.7795 13.294C51.842 13.294 53.9904 14.9218 53.9904 17.6204C53.9904 20.2334 52.6583 22.2467 51.6701 23.4889ZM71.0057 16.5067C70.533 16.5067 69.8455 16.6352 69.8455 17.6204C69.8455 18.6913 70.2752 19.8907 71.1346 21.2186C71.865 20.0621 72.2517 18.8627 72.2517 17.6204C72.2517 16.5495 71.1346 16.5067 71.0057 16.5067ZM49.7795 16.2497C48.9631 16.2497 48.7912 16.9779 48.7912 17.6204C48.7912 19.1197 49.3069 20.2763 49.7795 21.0901C50.424 20.1049 51.0256 18.9912 51.0256 17.6204C51.0256 16.5495 50.2521 16.2497 49.7795 16.2497ZM60.5215 12.9942C59.2754 15.2216 59.0606 16.3782 59.0606 16.8922C59.0606 18.5628 60.7793 18.8627 61.5097 18.1345C61.8105 17.8346 61.9394 17.4491 61.9394 16.8922C61.9394 16.3354 61.7246 15.2216 60.5215 12.9942Z" fill="url(#paint0_linear_4_290)"/>
<path d="M13.6133 73.668V76H4.55469V73.668H13.6133ZM5.38672 58.9375V76H2.44531V58.9375H5.38672ZM12.4297 66.0625V68.3594H4.55469V66.0625H12.4297ZM13.5547 58.9375V61.2812H4.55469V58.9375H13.5547ZM21.418 67.5859V69.8359H15.2188V67.5859H21.418ZM39.125 71.6055C39.125 71.2539 39.0703 70.9414 38.9609 70.668C38.8594 70.3945 38.6758 70.1445 38.4102 69.918C38.1445 69.6914 37.7695 69.4727 37.2852 69.2617C36.8086 69.043 36.1992 68.8203 35.457 68.5938C34.6445 68.3438 33.8945 68.0664 33.207 67.7617C32.5273 67.4492 31.9336 67.0898 31.4258 66.6836C30.918 66.2695 30.5234 65.7969 30.2422 65.2656C29.9609 64.7266 29.8203 64.1055 29.8203 63.4023C29.8203 62.707 29.9648 62.0742 30.2539 61.5039C30.5508 60.9336 30.9688 60.4414 31.5078 60.0273C32.0547 59.6055 32.6992 59.2812 33.4414 59.0547C34.1836 58.8203 35.0039 58.7031 35.9023 58.7031C37.168 58.7031 38.2578 58.9375 39.1719 59.4062C40.0938 59.875 40.8008 60.5039 41.293 61.293C41.793 62.082 42.043 62.9531 42.043 63.9062H39.125C39.125 63.3438 39.0039 62.8477 38.7617 62.418C38.5273 61.9805 38.168 61.6367 37.6836 61.3867C37.207 61.1367 36.6016 61.0117 35.8672 61.0117C35.1719 61.0117 34.5938 61.1172 34.1328 61.3281C33.6719 61.5391 33.3281 61.8242 33.1016 62.1836C32.875 62.543 32.7617 62.9492 32.7617 63.4023C32.7617 63.7227 32.8359 64.0156 32.9844 64.2812C33.1328 64.5391 33.3594 64.7812 33.6641 65.0078C33.9688 65.2266 34.3516 65.4336 34.8125 65.6289C35.2734 65.8242 35.8164 66.0117 36.4414 66.1914C37.3867 66.4727 38.2109 66.7852 38.9141 67.1289C39.6172 67.4648 40.2031 67.8477 40.6719 68.2773C41.1406 68.707 41.4922 69.1953 41.7266 69.7422C41.9609 70.2812 42.0781 70.8945 42.0781 71.582C42.0781 72.3008 41.9336 72.9492 41.6445 73.5273C41.3555 74.0977 40.9414 74.5859 40.4023 74.9922C39.8711 75.3906 39.2305 75.6992 38.4805 75.918C37.7383 76.1289 36.9102 76.2344 35.9961 76.2344C35.1758 76.2344 34.3672 76.125 33.5703 75.9062C32.7812 75.6875 32.0625 75.3555 31.4141 74.9102C30.7656 74.457 30.25 73.8945 29.8672 73.2227C29.4844 72.543 29.293 71.75 29.293 70.8438H32.2344C32.2344 71.3984 32.3281 71.8711 32.5156 72.2617C32.7109 72.6523 32.9805 72.9727 33.3242 73.2227C33.668 73.4648 34.0664 73.6445 34.5195 73.7617C34.9805 73.8789 35.4727 73.9375 35.9961 73.9375C36.6836 73.9375 37.2578 73.8398 37.7188 73.6445C38.1875 73.4492 38.5391 73.1758 38.7734 72.8242C39.0078 72.4727 39.125 72.0664 39.125 71.6055ZM49.9883 76.2344C49.0508 76.2344 48.2031 76.082 47.4453 75.7773C46.6953 75.4648 46.0547 75.0312 45.5234 74.4766C45 73.9219 44.5977 73.2695 44.3164 72.5195C44.0352 71.7695 43.8945 70.9609 43.8945 70.0938V69.625C43.8945 68.6328 44.0391 67.7344 44.3281 66.9297C44.6172 66.125 45.0195 65.4375 45.5352 64.8672C46.0508 64.2891 46.6602 63.8477 47.3633 63.543C48.0664 63.2383 48.8281 63.0859 49.6484 63.0859C50.5547 63.0859 51.3477 63.2383 52.0273 63.543C52.707 63.8477 53.2695 64.2773 53.7148 64.832C54.168 65.3789 54.5039 66.0312 54.7227 66.7891C54.9492 67.5469 55.0625 68.3828 55.0625 69.2969V70.5039H45.2656V68.4766H52.2734V68.2539C52.2578 67.7461 52.1562 67.2695 51.9688 66.8242C51.7891 66.3789 51.5117 66.0195 51.1367 65.7461C50.7617 65.4727 50.2617 65.3359 49.6367 65.3359C49.168 65.3359 48.75 65.4375 48.3828 65.6406C48.0234 65.8359 47.7227 66.1211 47.4805 66.4961C47.2383 66.8711 47.0508 67.3242 46.918 67.8555C46.793 68.3789 46.7305 68.9688 46.7305 69.625V70.0938C46.7305 70.6484 46.8047 71.1641 46.9531 71.6406C47.1094 72.1094 47.3359 72.5195 47.6328 72.8711C47.9297 73.2227 48.2891 73.5 48.7109 73.7031C49.1328 73.8984 49.6133 73.9961 50.1523 73.9961C50.832 73.9961 51.4375 73.8594 51.9688 73.5859C52.5 73.3125 52.9609 72.9258 53.3516 72.4258L54.8398 73.8672C54.5664 74.2656 54.2109 74.6484 53.7734 75.0156C53.3359 75.375 52.8008 75.668 52.168 75.8945C51.543 76.1211 50.8164 76.2344 49.9883 76.2344ZM60.1016 65.7344V76H57.2773V63.3203H59.9727L60.1016 65.7344ZM63.9805 63.2383L63.957 65.8633C63.7852 65.832 63.5977 65.8086 63.3945 65.793C63.1992 65.7773 63.0039 65.7695 62.8086 65.7695C62.3242 65.7695 61.8984 65.8398 61.5312 65.9805C61.1641 66.1133 60.8555 66.3086 60.6055 66.5664C60.3633 66.8164 60.1758 67.1211 60.043 67.4805C59.9102 67.8398 59.832 68.2422 59.8086 68.6875L59.1641 68.7344C59.1641 67.9375 59.2422 67.1992 59.3984 66.5195C59.5547 65.8398 59.7891 65.2422 60.1016 64.7266C60.4219 64.2109 60.8203 63.8086 61.2969 63.5195C61.7812 63.2305 62.3398 63.0859 62.9727 63.0859C63.1445 63.0859 63.3281 63.1016 63.5234 63.1328C63.7266 63.1641 63.8789 63.1992 63.9805 63.2383ZM70.0859 73.7617L73.1914 63.3203H76.1211L71.7148 76H69.8867L70.0859 73.7617ZM67.707 63.3203L70.8711 73.8086L71.0234 76H69.1953L64.7656 63.3203H67.707ZM80.8906 63.3203V76H78.0547V63.3203H80.8906ZM77.8672 59.9922C77.8672 59.5625 78.0078 59.207 78.2891 58.9258C78.5781 58.6367 78.9766 58.4922 79.4844 58.4922C79.9844 58.4922 80.3789 58.6367 80.668 58.9258C80.957 59.207 81.1016 59.5625 81.1016 59.9922C81.1016 60.4141 80.957 60.7656 80.668 61.0469C80.3789 61.3281 79.9844 61.4688 79.4844 61.4688C78.9766 61.4688 78.5781 61.3281 78.2891 61.0469C78.0078 60.7656 77.8672 60.4141 77.8672 59.9922ZM89.1641 73.9844C89.625 73.9844 90.0391 73.8945 90.4062 73.7148C90.7812 73.5273 91.082 73.2695 91.3086 72.9414C91.543 72.6133 91.6719 72.2344 91.6953 71.8047H94.3555C94.3398 72.625 94.0977 73.3711 93.6289 74.043C93.1602 74.7148 92.5391 75.25 91.7656 75.6484C90.9922 76.0391 90.1367 76.2344 89.1992 76.2344C88.2305 76.2344 87.3867 76.0703 86.668 75.7422C85.9492 75.4062 85.3516 74.9453 84.875 74.3594C84.3984 73.7734 84.0391 73.0977 83.7969 72.332C83.5625 71.5664 83.4453 70.7461 83.4453 69.8711V69.4609C83.4453 68.5859 83.5625 67.7656 83.7969 67C84.0391 66.2266 84.3984 65.5469 84.875 64.9609C85.3516 64.375 85.9492 63.918 86.668 63.5898C87.3867 63.2539 88.2266 63.0859 89.1875 63.0859C90.2031 63.0859 91.0938 63.2891 91.8594 63.6953C92.625 64.0938 93.2266 64.6523 93.6641 65.3711C94.1094 66.082 94.3398 66.9102 94.3555 67.8555H91.6953C91.6719 67.3867 91.5547 66.9648 91.3438 66.5898C91.1406 66.207 90.8516 65.9023 90.4766 65.6758C90.1094 65.4492 89.668 65.3359 89.1523 65.3359C88.582 65.3359 88.1094 65.4531 87.7344 65.6875C87.3594 65.9141 87.0664 66.2266 86.8555 66.625C86.6445 67.0156 86.4922 67.457 86.3984 67.9492C86.3125 68.4336 86.2695 68.9375 86.2695 69.4609V69.8711C86.2695 70.3945 86.3125 70.9023 86.3984 71.3945C86.4844 71.8867 86.6328 72.3281 86.8438 72.7188C87.0625 73.1016 87.3594 73.4102 87.7344 73.6445C88.1094 73.8711 88.5859 73.9844 89.1641 73.9844ZM102.113 76.2344C101.176 76.2344 100.328 76.082 99.5703 75.7773C98.8203 75.4648 98.1797 75.0312 97.6484 74.4766C97.125 73.9219 96.7227 73.2695 96.4414 72.5195C96.1602 71.7695 96.0195 70.9609 96.0195 70.0938V69.625C96.0195 68.6328 96.1641 67.7344 96.4531 66.9297C96.7422 66.125 97.1445 65.4375 97.6602 64.8672C98.1758 64.2891 98.7852 63.8477 99.4883 63.543C100.191 63.2383 100.953 63.0859 101.773 63.0859C102.68 63.0859 103.473 63.2383 104.152 63.543C104.832 63.8477 105.395 64.2773 105.84 64.832C106.293 65.3789 106.629 66.0312 106.848 66.7891C107.074 67.5469 107.188 68.3828 107.188 69.2969V70.5039H97.3906V68.4766H104.398V68.2539C104.383 67.7461 104.281 67.2695 104.094 66.8242C103.914 66.3789 103.637 66.0195 103.262 65.7461C102.887 65.4727 102.387 65.3359 101.762 65.3359C101.293 65.3359 100.875 65.4375 100.508 65.6406C100.148 65.8359 99.8477 66.1211 99.6055 66.4961C99.3633 66.8711 99.1758 67.3242 99.043 67.8555C98.918 68.3789 98.8555 68.9688 98.8555 69.625V70.0938C98.8555 70.6484 98.9297 71.1641 99.0781 71.6406C99.2344 72.1094 99.4609 72.5195 99.7578 72.8711C100.055 73.2227 100.414 73.5 100.836 73.7031C101.258 73.8984 101.738 73.9961 102.277 73.9961C102.957 73.9961 103.562 73.8594 104.094 73.5859C104.625 73.3125 105.086 72.9258 105.477 72.4258L106.965 73.8672C106.691 74.2656 106.336 74.6484 105.898 75.0156C105.461 75.375 104.926 75.668 104.293 75.8945C103.668 76.1211 102.941 76.2344 102.113 76.2344ZM116.504 72.5664C116.504 72.2852 116.434 72.0312 116.293 71.8047C116.152 71.5703 115.883 71.3594 115.484 71.1719C115.094 70.9844 114.516 70.8125 113.75 70.6562C113.078 70.5078 112.461 70.332 111.898 70.1289C111.344 69.918 110.867 69.6641 110.469 69.3672C110.07 69.0703 109.762 68.7188 109.543 68.3125C109.324 67.9062 109.215 67.4375 109.215 66.9062C109.215 66.3906 109.328 65.9023 109.555 65.4414C109.781 64.9805 110.105 64.5742 110.527 64.2227C110.949 63.8711 111.461 63.5938 112.062 63.3906C112.672 63.1875 113.352 63.0859 114.102 63.0859C115.164 63.0859 116.074 63.2656 116.832 63.625C117.598 63.9766 118.184 64.457 118.59 65.0664C118.996 65.668 119.199 66.3477 119.199 67.1055H116.375C116.375 66.7695 116.289 66.457 116.117 66.168C115.953 65.8711 115.703 65.6328 115.367 65.4531C115.031 65.2656 114.609 65.1719 114.102 65.1719C113.617 65.1719 113.215 65.25 112.895 65.4062C112.582 65.5547 112.348 65.75 112.191 65.9922C112.043 66.2344 111.969 66.5 111.969 66.7891C111.969 67 112.008 67.1914 112.086 67.3633C112.172 67.5273 112.312 67.6797 112.508 67.8203C112.703 67.9531 112.969 68.0781 113.305 68.1953C113.648 68.3125 114.078 68.4258 114.594 68.5352C115.562 68.7383 116.395 69 117.09 69.3203C117.793 69.6328 118.332 70.0391 118.707 70.5391C119.082 71.0312 119.27 71.6562 119.27 72.4141C119.27 72.9766 119.148 73.4922 118.906 73.9609C118.672 74.4219 118.328 74.8242 117.875 75.168C117.422 75.5039 116.879 75.7656 116.246 75.9531C115.621 76.1406 114.918 76.2344 114.137 76.2344C112.988 76.2344 112.016 76.0312 111.219 75.625C110.422 75.2109 109.816 74.6836 109.402 74.043C108.996 73.3945 108.793 72.7227 108.793 72.0273H111.523C111.555 72.5508 111.699 72.9688 111.957 73.2812C112.223 73.5859 112.551 73.8086 112.941 73.9492C113.34 74.082 113.75 74.1484 114.172 74.1484C114.68 74.1484 115.105 74.082 115.449 73.9492C115.793 73.8086 116.055 73.6211 116.234 73.3867C116.414 73.1445 116.504 72.8711 116.504 72.5664Z" fill="url(#paint1_linear_4_290)"/>
<defs>
<linearGradient id="paint0_linear_4_290" x1="60.5" y1="0" x2="60.5" y2="30" gradientUnits="userSpaceOnUse">
<stop stop-color="#62CFF4"/>
<stop offset="1" stop-color="#2C67F2"/>
</linearGradient>
<linearGradient id="paint1_linear_4_290" x1="60.5" y1="50" x2="60.5" y2="86" gradientUnits="userSpaceOnUse">
<stop stop-color="#62CFF4"/>
<stop offset="1" stop-color="#2C67F2"/>
</linearGradient>
</defs>
</svg>
