<svg width="16" height="16" viewBox="0 0 16 16" fill="none" xmlns="http://www.w3.org/2000/svg">
<path d="M12 5.93343C12 8.86677 10.4666 11.6001 7.99996 13.2001C7.46663 12.8668 6.99996 12.5334 6.59996 12.1334C6.33329 11.8668 5.93329 11.8668 5.66663 12.1334C5.39996 12.4001 5.39996 12.8001 5.66663 13.0668C6.26663 13.6668 6.93329 14.1334 7.66663 14.5334C7.79996 14.6668 7.86663 14.6668 7.99996 14.6668C8.13329 14.6668 8.19996 14.6668 8.33329 14.6001C11.4 12.8668 13.3333 9.53343 13.3333 6.0001C13.3333 5.6001 13.0666 5.33343 12.6666 5.33343C12.2666 5.33343 12 5.6001 12 5.93343ZM2.86663 13.1334C2.99996 13.2668 3.13329 13.3334 3.33329 13.3334C3.53329 13.3334 3.66663 13.2668 3.79996 13.1334L13.8 3.13343C14.0666 2.86676 14.0666 2.46676 13.8 2.2001C13.5333 1.93343 13.1333 1.93343 12.8666 2.2001L12 3.06676C11.9333 3.0001 11.8 2.93343 11.6666 2.86676L8.19996 1.4001C7.99996 1.33343 7.86663 1.33343 7.66663 1.4001L4.26663 2.86676C3.33329 3.26676 2.66663 4.26676 2.66663 5.33343V6.0001C2.66663 7.8001 3.13329 9.53343 4.06663 11.0668L2.86663 12.2668C2.59996 12.4668 2.59996 12.8668 2.86663 13.1334ZM3.99996 5.93343V5.33343C3.99996 4.8001 4.33329 4.33343 4.79996 4.13343L7.99996 2.73343L11 4.0001L4.99996 10.0001C4.33329 8.8001 3.99996 7.4001 3.99996 5.93343Z" fill="#545050"/>
</svg>
