<svg width="24" height="24" viewBox="0 0 24 24" fill="none" xmlns="http://www.w3.org/2000/svg">
<g clip-path="url(#clip0_71_1647)">
<path d="M24 10.5938C24 7.10442 21.1612 4.26562 17.6719 4.26562C14.1825 4.26562 11.3438 7.10442 11.3438 10.5938C11.3438 13.8454 13.8091 16.5317 16.9688 16.8826V23.2969C16.9688 23.6852 17.2836 24 17.6719 24C18.0602 24 18.375 23.6852 18.375 23.2969V16.8826C21.5347 16.5317 24 13.8454 24 10.5938ZM17.6719 15.5156C14.958 15.5156 12.75 13.3077 12.75 10.5938C12.75 7.87983 14.958 5.67188 17.6719 5.67188C20.3858 5.67188 22.5938 7.87983 22.5938 10.5938C22.5938 13.3077 20.3858 15.5156 17.6719 15.5156Z" fill="url(#paint0_linear_71_1647)"/>
<path d="M19.0781 8.48438H16.2656C15.8773 8.48438 15.5625 8.79919 15.5625 9.1875V12C15.5625 12.3883 15.8773 12.7031 16.2656 12.7031H19.0781C19.4664 12.7031 19.7812 12.3883 19.7812 12V9.1875C19.7812 8.79919 19.4664 8.48438 19.0781 8.48438ZM18.375 11.2969H16.9688V9.89062H18.375V11.2969Z" fill="url(#paint1_linear_71_1647)"/>
<path d="M3.60938 11.2969H0.703125C0.314812 11.2969 0 11.6117 0 12V14.8125C0 15.2008 0.314812 15.5156 0.703125 15.5156H3.60938C3.99769 15.5156 4.3125 15.2008 4.3125 14.8125V12C4.3125 11.6117 3.99769 11.2969 3.60938 11.2969ZM2.90625 14.1094H1.40625V12.7031H2.90625V14.1094Z" fill="url(#paint2_linear_71_1647)"/>
<path d="M2.10938 9.89062C3.27248 9.89062 4.21875 8.94436 4.21875 7.78125C4.21875 6.61814 3.27248 5.67188 2.10938 5.67188C0.946266 5.67188 0 6.61814 0 7.78125C0 8.94436 0.946266 9.89062 2.10938 9.89062ZM2.10938 7.07812C2.49708 7.07812 2.8125 7.39355 2.8125 7.78125C2.8125 8.16895 2.49708 8.48438 2.10938 8.48438C1.72167 8.48438 1.40625 8.16895 1.40625 7.78125C1.40625 7.39355 1.72167 7.07812 2.10938 7.07812Z" fill="url(#paint3_linear_71_1647)"/>
<path d="M9.23438 5.67188H6.42188C6.03356 5.67188 5.71875 5.98669 5.71875 6.375V9.1875C5.71875 9.57581 6.03356 9.89062 6.42188 9.89062H9.23438C9.62269 9.89062 9.9375 9.57581 9.9375 9.1875V6.375C9.9375 5.98669 9.62269 5.67188 9.23438 5.67188ZM8.53125 8.48438H7.125V7.07812H8.53125V8.48438Z" fill="url(#paint4_linear_71_1647)"/>
<path d="M7.82812 11.2969C6.66502 11.2969 5.71875 12.2431 5.71875 13.4062C5.71875 14.5694 6.66502 15.5156 7.82812 15.5156C8.99123 15.5156 9.9375 14.5694 9.9375 13.4062C9.9375 12.2431 8.99123 11.2969 7.82812 11.2969ZM7.82812 14.1094C7.44042 14.1094 7.125 13.794 7.125 13.4062C7.125 13.0185 7.44042 12.7031 7.82812 12.7031C8.21583 12.7031 8.53125 13.0185 8.53125 13.4062C8.53125 13.794 8.21583 14.1094 7.82812 14.1094Z" fill="url(#paint5_linear_71_1647)"/>
<path d="M3.60938 0H0.703125C0.314812 0 0 0.314812 0 0.703125V3.5625C0 3.95081 0.314812 4.26562 0.703125 4.26562H3.60938C3.99769 4.26562 4.3125 3.95081 4.3125 3.5625V0.703125C4.3125 0.314812 3.99769 0 3.60938 0ZM2.90625 2.85938H1.40625V1.40625H2.90625V2.85938Z" fill="url(#paint6_linear_71_1647)"/>
<path d="M7.82812 0C6.66502 0 5.71875 0.946266 5.71875 2.10938C5.71875 3.27487 6.6608 4.26562 7.82812 4.26562C8.99344 4.26562 9.9375 3.2767 9.9375 2.10938C9.9375 0.946266 8.99123 0 7.82812 0ZM7.82812 2.85938C7.45359 2.85938 7.125 2.50889 7.125 2.10938C7.125 1.72167 7.44042 1.40625 7.82812 1.40625C8.21583 1.40625 8.53125 1.72167 8.53125 2.10938C8.53125 2.50889 8.20266 2.85938 7.82812 2.85938Z" fill="url(#paint7_linear_71_1647)"/>
<path d="M12.0469 4.26562H14.8594C15.2477 4.26562 15.5625 3.95081 15.5625 3.5625V0.703125C15.5625 0.314812 15.2477 0 14.8594 0H12.0469C11.6586 0 11.3438 0.314812 11.3438 0.703125V3.5625C11.3438 3.95081 11.6586 4.26562 12.0469 4.26562ZM12.75 1.40625H14.1562V2.85938H12.75V1.40625Z" fill="url(#paint8_linear_71_1647)"/>
</g>
<defs>
<linearGradient id="paint0_linear_71_1647" x1="17.6719" y1="4.26562" x2="17.6719" y2="24" gradientUnits="userSpaceOnUse">
<stop stop-color="#8F2CF2"/>
<stop offset="1" stop-color="#2C67F2"/>
</linearGradient>
<linearGradient id="paint1_linear_71_1647" x1="17.6719" y1="8.48438" x2="17.6719" y2="12.7031" gradientUnits="userSpaceOnUse">
<stop stop-color="#8F2CF2"/>
<stop offset="1" stop-color="#2C67F2"/>
</linearGradient>
<linearGradient id="paint2_linear_71_1647" x1="2.15625" y1="11.2969" x2="2.15625" y2="15.5156" gradientUnits="userSpaceOnUse">
<stop stop-color="#8F2CF2"/>
<stop offset="1" stop-color="#2C67F2"/>
</linearGradient>
<linearGradient id="paint3_linear_71_1647" x1="2.10938" y1="5.67188" x2="2.10938" y2="9.89062" gradientUnits="userSpaceOnUse">
<stop stop-color="#8F2CF2"/>
<stop offset="1" stop-color="#2C67F2"/>
</linearGradient>
<linearGradient id="paint4_linear_71_1647" x1="7.82812" y1="5.67188" x2="7.82812" y2="9.89062" gradientUnits="userSpaceOnUse">
<stop stop-color="#8F2CF2"/>
<stop offset="1" stop-color="#2C67F2"/>
</linearGradient>
<linearGradient id="paint5_linear_71_1647" x1="7.82812" y1="11.2969" x2="7.82812" y2="15.5156" gradientUnits="userSpaceOnUse">
<stop stop-color="#8F2CF2"/>
<stop offset="1" stop-color="#2C67F2"/>
</linearGradient>
<linearGradient id="paint6_linear_71_1647" x1="2.15625" y1="0" x2="2.15625" y2="4.26562" gradientUnits="userSpaceOnUse">
<stop stop-color="#8F2CF2"/>
<stop offset="1" stop-color="#2C67F2"/>
</linearGradient>
<linearGradient id="paint7_linear_71_1647" x1="7.82812" y1="0" x2="7.82812" y2="4.26562" gradientUnits="userSpaceOnUse">
<stop stop-color="#8F2CF2"/>
<stop offset="1" stop-color="#2C67F2"/>
</linearGradient>
<linearGradient id="paint8_linear_71_1647" x1="13.4531" y1="0" x2="13.4531" y2="4.26562" gradientUnits="userSpaceOnUse">
<stop stop-color="#8F2CF2"/>
<stop offset="1" stop-color="#2C67F2"/>
</linearGradient>
<clipPath id="clip0_71_1647">
<rect width="24" height="24" fill="white"/>
</clipPath>
</defs>
</svg>
