<svg width="98" height="98" viewBox="0 0 98 98" fill="none" xmlns="http://www.w3.org/2000/svg">
<g clip-path="url(#clip0_12_670)">
<path d="M29.5748 20.4097C28.2154 23.7122 23.4563 28.8225 18.6319 30.1744L36.1226 47.6652L49.8923 61.4349L67.8022 79.3448C69.1595 74.5005 74.2873 69.7517 77.5666 68.4017L29.5748 20.4097Z" fill="#61626D"/>
<path d="M55.3808 56.7753L24.9921 26.3865C23.0714 28.1616 20.9743 29.5181 18.6321 30.1746L36.1228 47.6653L49.8926 61.4351L67.8025 79.3449C68.4586 77.0027 69.8151 74.9057 71.5902 72.9847L55.3808 56.7753Z" fill="#3F404C"/>
<path d="M89.0393 12.9995L59.8479 42.192L55.3657 37.71L84.5572 8.51752L89.0393 12.9995Z" fill="#CDCECC"/>
<path d="M89.0393 12.9995L59.8479 42.192L55.3657 37.71L84.5572 8.51752L89.0393 12.9995Z" fill="#E5E5E5"/>
<path d="M57.4807 39.8256L55.3657 37.7105L84.5578 8.51946L86.6728 10.6345L57.4807 39.8256Z" fill="#CDCECC"/>
<path d="M58.3989 48.7652L60.6275 46.5366C61.6545 45.5096 61.6545 43.8449 60.6275 42.818L54.7398 36.9303C53.7129 35.9033 52.0479 35.9033 51.021 36.9303L48.7924 39.1589L58.3989 48.7652Z" fill="#FF8C01"/>
<path d="M54.7396 36.9304C54.6944 36.885 54.6468 36.8446 54.5991 36.8035C53.3166 38.2671 52.1465 39.8255 51.0989 41.4655L58.3989 48.7654L60.6274 46.5369C61.6545 45.5098 61.6545 43.8451 60.6274 42.8182L54.7396 36.9304Z" fill="#FFA403"/>
<path d="M58.9564 48.9285L48.6291 38.6012C47.6785 37.6508 46.1373 37.6508 45.1868 38.6012L5.09697 78.691C1.2943 82.4937 1.2943 88.6583 5.09697 92.461C8.89925 96.2633 15.0641 96.2633 18.8665 92.461L58.9566 52.3711C59.9071 51.4204 59.9071 49.8794 58.9564 48.9285Z" fill="#FF8C01"/>
<path d="M8.76775 81.9165L50.3559 40.3285L48.6287 38.6013C47.6782 37.651 46.137 37.651 45.1864 38.6013L5.09696 78.691C0.627053 83.1609 1.53566 90.6449 6.95839 93.9173C4.91608 90.0578 5.51901 85.1657 8.76775 81.9165Z" fill="#F45C0F"/>
<path d="M51.2543 41.2264C47.3513 47.2421 45.083 54.4166 45.083 62.1219C45.083 63.4468 45.1501 64.756 45.2809 66.0463L58.9565 52.3711C59.907 51.4205 59.907 49.8793 58.9565 48.9286L51.2543 41.2264Z" fill="#FFA403"/>
<path d="M58.9565 48.9285L48.6291 38.6012C47.6786 37.6508 46.1374 37.6508 45.1869 38.6012L41.314 42.4741L55.0839 56.244L58.9568 52.3711C59.9072 51.4204 59.9072 49.8794 58.9565 48.9285Z" fill="#FFC35A"/>
<path d="M44.7623 45.9223L50.3562 40.3284L48.6289 38.6012C47.6784 37.6508 46.1372 37.6508 45.1867 38.6012L41.3138 42.4741L44.7623 45.9223Z" fill="#F9A346"/>
<path d="M58.9564 48.9284L51.254 41.2264C49.738 43.5628 48.4813 46.0576 47.5061 48.6664L55.0835 56.2438L58.9564 52.3709C59.9071 51.4204 59.9071 49.8793 58.9564 48.9284ZM44.5412 53.0163C43.3036 51.7787 41.2971 51.7787 40.0598 53.0163L10.0452 83.0311C8.80777 84.2685 8.80777 86.2751 10.0452 87.5125C11.2828 88.7501 13.289 88.7501 14.5266 87.5125L44.5412 57.4981C45.7788 56.2603 45.7788 54.2541 44.5412 53.0163Z" fill="#FFD188"/>
<path d="M12.0822 85.1986L42.0966 55.184C42.9784 54.3022 44.2501 54.0522 45.3564 54.4275C44.7213 52.0786 41.7777 51.2986 40.0598 53.0167L10.0452 83.0311C8.38897 84.6871 9.04262 87.515 11.267 88.2693C10.9802 87.2093 11.2501 86.0302 12.0822 85.1986Z" fill="#FFC35A"/>
<path d="M92.6092 5.98775L91.5701 4.94861C90.6195 3.99809 89.0783 3.99809 88.1276 4.94861L84.5131 8.56332L84.2827 8.79377L88.7642 13.2752L89.0395 13.0003L92.6094 9.43C93.5599 8.47929 93.5599 6.93828 92.6092 5.98775Z" fill="#FC5151"/>
<path d="M86.3973 10.9083L86.5531 10.7524H86.5529L90.2905 7.01447C91.0138 6.29134 92.067 6.10242 92.965 6.44294C92.7643 6.11487 92.7011 6.07888 91.5703 4.94824C90.6197 3.99772 89.0785 3.99772 88.1278 4.94824L84.5133 8.56295L84.2829 8.7934L86.3973 10.9083Z" fill="#D33333"/>
<path d="M26.6459 4.14506C22.8764 0.375702 17.3792 -0.848724 12.2378 0.577827C11.3684 0.818999 11.0773 1.91231 11.7178 2.55295L21.1156 11.9508L18.9277 20.1166L10.7619 22.3043L2.16353 13.7058C1.47236 13.0146 0.286215 13.4168 0.155867 14.384C-0.464097 18.9896 0.999012 23.4499 4.17004 26.6211C10.0954 32.5461 19.843 31.9583 25.9132 25.888C32.1094 19.6917 32.4381 9.93759 26.6459 4.14506Z" fill="#A5A6AD"/>
<path d="M9.09601 26.6211C6.4102 23.9351 4.95034 20.325 4.94268 16.4848L2.16347 13.7058C1.4723 13.0146 0.286153 13.4168 0.155806 14.3839C-1.16337 24.1824 6.96106 32.1631 16.8418 30.5639C13.8894 30.0793 11.1986 28.7237 9.09601 26.6211Z" fill="#8A8C93"/>
<path d="M93.8317 71.3309C87.9201 65.4199 78.1681 65.9842 72.0885 72.0638C60.8545 83.2978 70.4539 101.617 85.7631 97.3744C86.6344 97.1327 86.9229 96.0384 86.2834 95.3991L76.8857 86.0013L79.0735 77.8355L87.2393 75.6475L95.838 84.2463C96.5282 84.9365 97.7151 84.5368 97.8457 83.5683C98.4656 78.9623 97.0027 74.5021 93.8317 71.3309Z" fill="#A5A6AD"/>
<path d="M76.1819 94.2011C67.1022 85.121 73.8575 68.6751 87.2724 67.6308C81.841 66.2713 76.0483 68.1038 72.0885 72.0638C61.8933 82.2591 68.7312 98.9757 82.7498 97.9019C80.2612 97.2812 78.0014 96.0202 76.1819 94.2011Z" fill="#8A8C93"/>
<path d="M35.1819 32.3541C36.1324 33.3045 36.1324 34.8457 35.1819 35.7966L34.608 36.3702C33.6575 37.3206 32.1161 37.3206 31.1656 36.3702L28.7273 33.9317C27.7767 32.9814 27.7767 31.4402 28.7273 30.4895L29.3009 29.9156C30.2514 28.9653 31.7928 28.9653 32.7434 29.9156L35.1819 32.3541Z" fill="#A1A4AD"/>
<path d="M28.911 30.3055L28.7273 30.4895C27.7767 31.4402 27.7767 32.9814 28.7273 33.9317L31.1656 36.3703C32.1161 37.3206 33.6575 37.3206 34.608 36.3703L34.792 36.1863L28.911 30.3055Z" fill="#878993"/>
<path d="M67.837 65.0095C68.7875 65.9598 68.7875 67.5012 67.837 68.4517L67.2632 69.0256C66.3126 69.9759 64.7714 69.9759 63.8207 69.0256L61.3824 66.5869C60.4319 65.6365 60.4319 64.0953 61.3824 63.1446L61.956 62.5708C62.9067 61.6204 64.4479 61.6204 65.3985 62.5708L67.837 65.0095Z" fill="#A1A4AD"/>
<path d="M61.5663 62.9607L61.3826 63.1446C60.432 64.0953 60.432 65.6365 61.3826 66.5869L63.8209 69.0256C64.7716 69.9759 66.3128 69.9759 67.2633 69.0256L67.4473 68.8416L61.5663 62.9607Z" fill="#878993"/>
</g>
<defs>
<clipPath id="clip0_12_670">
<rect width="98" height="98" fill="white"/>
</clipPath>
</defs>
</svg>
