<svg width="24" height="24" viewBox="0 0 24 24" fill="none" xmlns="http://www.w3.org/2000/svg">
<g clip-path="url(#clip0_71_1667)">
<path d="M20.9347 4.89347L16.2472 0.205969C16.1153 0.0741094 15.9365 0 15.75 0H5.4375C4.01592 0 2.85938 1.15655 2.85938 2.57812V21.4219C2.85938 22.8435 4.01592 24 5.4375 24H18.5625C19.9841 24 21.1406 22.8435 21.1406 21.4219V5.39062C21.1406 5.20416 21.0665 5.02533 20.9347 4.89347ZM16.4531 2.40061L18.74 4.6875H16.4531V2.40061ZM18.5625 22.5938H5.4375C4.79133 22.5938 4.26562 22.068 4.26562 21.4219V2.57812C4.26562 1.93195 4.79133 1.40625 5.4375 1.40625H15.0469V5.39062C15.0469 5.77894 15.3617 6.09375 15.75 6.09375H19.7344V21.4219C19.7344 22.068 19.2087 22.5938 18.5625 22.5938Z" fill="url(#paint0_linear_71_1667)"/>
<path d="M16.6875 9.46875C15.799 9.46875 15.0002 8.97506 14.6029 8.18044L14.5039 7.98248C14.3848 7.74422 14.1413 7.59375 13.875 7.59375H10.125C9.85866 7.59375 9.61519 7.74422 9.49608 7.98244L9.39713 8.18034C8.99981 8.97506 8.20102 9.46875 7.3125 9.46875C6.92419 9.46875 6.60938 9.78356 6.60938 10.1719V14.1842C6.60938 15.7618 7.10714 17.2646 8.04881 18.5303C8.99048 19.7959 10.287 20.7045 11.798 21.1578C11.8639 21.1776 11.9319 21.1875 12 21.1875C12.0681 21.1875 12.1361 21.1776 12.202 21.1578C13.713 20.7045 15.0095 19.7959 15.9512 18.5303C16.8929 17.2646 17.3906 15.7618 17.3906 14.1842V10.1719C17.3906 9.78356 17.0758 9.46875 16.6875 9.46875ZM15.9844 14.1842C15.9844 16.7275 14.392 18.9367 12 19.7464C9.60802 18.9367 8.01562 16.7275 8.01562 14.1842V10.8095C9.07973 10.6086 10.0049 9.95634 10.5527 8.99995H13.4473C13.9951 9.9563 14.9203 10.6086 15.9844 10.8095V14.1842Z" fill="url(#paint1_linear_71_1667)"/>
<path d="M13.4914 12.5678L11.3369 14.7222L10.5082 13.8936C10.2337 13.619 9.78846 13.619 9.51387 13.8936C9.23927 14.1682 9.23927 14.6133 9.51387 14.8879L10.8397 16.2138C10.977 16.3511 11.1569 16.4197 11.3368 16.4197C11.5167 16.4197 11.6967 16.3511 11.834 16.2138L14.4856 13.5621C14.7602 13.2875 14.7602 12.8424 14.4856 12.5678C14.2111 12.2932 13.7659 12.2932 13.4914 12.5678Z" fill="url(#paint2_linear_71_1667)"/>
</g>
<defs>
<linearGradient id="paint0_linear_71_1667" x1="12" y1="0" x2="12" y2="24" gradientUnits="userSpaceOnUse">
<stop stop-color="#8F2CF2"/>
<stop offset="1" stop-color="#2C67F2"/>
</linearGradient>
<linearGradient id="paint1_linear_71_1667" x1="12" y1="7.59375" x2="12" y2="21.1875" gradientUnits="userSpaceOnUse">
<stop stop-color="#8F2CF2"/>
<stop offset="1" stop-color="#2C67F2"/>
</linearGradient>
<linearGradient id="paint2_linear_71_1667" x1="11.9997" y1="12.3618" x2="11.9997" y2="16.4197" gradientUnits="userSpaceOnUse">
<stop stop-color="#8F2CF2"/>
<stop offset="1" stop-color="#2C67F2"/>
</linearGradient>
<clipPath id="clip0_71_1667">
<rect width="24" height="24" fill="white"/>
</clipPath>
</defs>
</svg>
